<?xml version="1.0" encoding="UTF-8"?>
<svg width="182px" height="195px" viewBox="0 0 182 195" version="1.1" xmlns="http://www.w3.org/2000/svg" xmlns:xlink="http://www.w3.org/1999/xlink">
    <!-- Generator: Sketch 43.2 (39069) - http://www.bohemiancoding.com/sketch -->
    <title>group-landing-ayanakomodo-logo2</title>
    <desc>Created with Sketch.</desc>
    <defs></defs>
    <g id="HCD-&amp;-Training" stroke="none" stroke-width="1" fill="none" fill-rule="evenodd">
        <g id="group-landing-ayanakomodo-logo2">
            <g id="group-landing-ayanakomodo-logo">
                <rect id="Rectangle-path" x="0" y="0" width="182" height="195"></rect>
                <g id="Layer_2-2-2" transform="translate(11.000000, 33.000000)" fill-rule="nonzero">
                    <g id="Scene_1-2">
                        <path d="M117.74,82.2 C118.364864,81.6846024 118.730731,80.9199409 118.74,80.11 C118.746028,79.7489975 118.674411,79.3909147 118.53,79.06 C118.390622,78.6132269 117.91957,78.3599249 117.47,78.49 L117.39,78.49 C116.569432,78.8442861 115.614955,78.6485984 115,78 C114.387367,77.5161819 113.900295,76.8919064 113.58,76.18 C113.335072,75.6404715 113.189409,75.0612088 113.15,74.47 C112.15,64.38 102.74,59.97 97.77,59.04 C95.1523081,58.5496486 92.4630442,58.5870468 89.86,59.15 C89.7742193,59.1720641 89.6835724,59.1405348 89.63,59.07 C89.5895551,59.0094676 89.5895551,58.9305324 89.63,58.87 C89.9709061,58.1841254 90.5612376,57.6546159 91.28,57.39 C92.3802273,56.9831421 93.4384942,56.4707534 94.44,55.86 L94.71,55.7 C95.9289748,54.8256603 97.2791434,54.1505761 98.71,53.7 C103.4,52.59 107.03,53.37 110.13,56.15 C112.604736,58.2222384 114.063099,61.2629249 114.13,64.49 C114.130886,64.8859957 113.941063,65.2581981 113.62,65.49 C113.28024,65.6969982 112.865656,65.7410249 112.49,65.61 C112.186368,65.5230511 111.86001,65.5708105 111.594025,65.7411176 C111.32804,65.9114247 111.148092,66.1878464 111.1,66.5 L111.1,66.84 C111.053376,67.714929 111.528029,68.5347842 112.31,68.93 C112.399253,68.9714626 112.493304,69.0016935 112.59,69.02 C112.640681,69.027356 112.686247,69.0548598 112.716369,69.0962772 C112.746491,69.1376945 112.758617,69.1895178 112.75,69.24 L112.75,69.24 C112.703777,69.4502047 112.680308,69.6647733 112.68,69.88 C112.667687,70.3593164 112.811591,70.8296359 113.09,71.22 C113.543775,71.7996795 114.270162,72.0963192 115,72 C116.605874,71.9693681 118.006376,70.9007773 118.46,69.36 C118.596709,68.9403762 118.664257,68.5013108 118.66,68.06 C118.652331,67.5400785 118.581819,67.022992 118.45,66.52 C118.31016,65.9136041 118.246336,65.2921611 118.26,64.67 L118.26,64.49 C118.137151,60.2821789 116.347536,56.2955612 113.28496,53.4073998 C110.222383,50.5192384 106.137793,48.9661893 101.93,49.09 L101.77,49.09 C101.349695,49.1110042 100.945918,48.9240704 100.69,48.59 L100.62,48.49 C100.32,47.98 100.62,47.35 100.76,46.77 L101.26,44.9 C101.642525,42.9074493 102.366511,40.9959906 103.4,39.25 C105.32,36.16 108.1,33.05 114.17,33.46 C115.52,33.72 115.84,34.09 116.44,35.46 C116.97539,36.8263991 118.206491,37.797516 119.66,38 C120.726513,38.1484012 121.792814,37.7271932 122.47,36.89 C123.20842,35.6229425 123.253606,34.0677943 122.59,32.76 C121.85,31.21 119.88,29.32 114.74,29.09 C113.193392,29.0233215 111.646981,29.2263514 110.17,29.69 C104.55,30.69 101.61,34.44 99.89,37.21 C98.6299165,39.3055096 97.7402403,41.6024303 97.26,44 C96.8916902,45.811456 96.2864899,47.5665371 95.46,49.22 C94.6029498,50.7207574 93.3183455,51.9322541 91.77,52.7 C91.7087275,52.7379267 91.6312725,52.7379267 91.57,52.7 C91.4862001,52.640281 91.4374952,52.5428713 91.44,52.44 L91.51,50.23 L91.51,49.93 C91.5770066,44.7921624 93.4861093,39.8490769 96.89,36 C97.3,35.53 97.78,35.12 98.2,34.65 L98.35,34.49 C103.836689,29.4984009 111.06859,26.8686187 118.48,27.17 C132.64,27.53 144,38.17 144,51 L144,51.3 C143.840203,52.5524313 143.413974,53.7561016 142.75,54.83 C141.704496,56.1155701 140.482388,57.2467772 139.12,58.19 L137.66,59.36 C136.964748,59.848257 136.448455,60.5506971 136.19,61.36 C136.19,61.64 135.89,61.89 135.65,61.75 L135.38,61.62 C134.37743,61.1760529 133.204337,61.6220958 132.75,62.62 L132.75,62.71 C131.592805,65.1519646 128.747604,66.2875242 126.227007,65.3134184 C123.70641,64.3393126 122.36428,61.5855245 123.15,59 L123.22,58.83 C123.231851,58.7603587 123.267131,58.6968535 123.32,58.65 L124.09,58.01 C125.166803,57.2570945 125.817533,56.0337228 125.84,54.72 L125.84,54.34 C125.764156,53.2651324 125.130339,52.3087139 124.17,51.82 C122.782487,51.3512489 121.251713,51.6227162 120.11,52.54 C119.02,53.37 117.88,55 117.88,58.22 C117.879519,59.1510336 117.953085,60.0806309 118.1,61 C118.319724,62.3837996 118.849612,63.6999743 119.65,64.85 L119.65,64.85 C120.128714,65.8278513 120.77902,66.7118614 121.57,67.46 C121.965728,67.866903 122.127688,68.4469484 122,69 C121.925763,69.3992011 121.885618,69.8039937 121.88,70.21 C121.88,73.67 124.3,76.91 125.79,78.6 C125.975799,78.7797964 126.098558,79.0147933 126.14,79.27 L126.14,79.38 C126.14,79.62 125.9,79.77 125.67,79.81 C125.456641,79.8419258 125.238608,79.8142391 125.04,79.73 C124.750164,79.6066815 124.448641,79.5128745 124.14,79.45 C122.579577,79.1266779 120.960998,79.6073696 119.83,80.73 C119.408669,81.2725291 119.186282,81.9432179 119.2,82.63 C119.193355,82.7132009 119.193355,82.7967991 119.2,82.88 L128.62,82.88 C128.801776,82.7329346 128.975368,82.5760334 129.14,82.41 C129.520245,82.0038869 129.812967,81.5239585 130,81 C130.156583,80.4870334 130.583532,80.1023945 131.11,80 C133.278329,79.7096598 135.356906,78.9485387 137.2,77.77 L137.2,77.77 C138.28,76.92 144.77,76.26 146.14,76.43 C147.955059,76.5059469 149.491009,77.7954882 149.88,79.57 C150.64,84.03 157.3,84.06 156.62,78.84 C156.45,77.48 155.62,75.67 152.81,74.07 C152.006796,73.6146956 151.167259,73.2267025 150.3,72.91 C149.841269,72.737198 149.369864,72.6001228 148.89,72.5 C148.758582,72.4761843 148.649315,72.3851257 148.602196,72.2601557 C148.555076,72.1351858 148.577022,71.9946535 148.66,71.89 C148.95489,71.511691 149.219065,71.1104128 149.45,70.69 C149.698177,70.1664485 150.23074,69.8375129 150.81,69.85 C154.03,70.12 154.43,71.39 154.61,71.96 C154.93,72.96 155.55,73.02 155.81,72.96 C156.46,72.87 156.81,72.16 156.87,71.06 L156.87,71 C156.869844,70.6939335 156.836313,70.3887965 156.77,70.09 C156.669332,69.5288282 156.689789,68.9526199 156.83,68.4 C156.870163,68.2295914 156.890299,68.0550774 156.89,67.88 C156.869767,67.2225719 156.687726,66.5802776 156.36,66.01 C155.516801,64.2887623 153.638254,63.3311513 151.75,63.66 C151.139695,63.7823761 150.540879,63.9563338 149.96,64.18 L149.96,64.18 C149.181618,64.348503 148.479439,64.7662993 147.96,65.37 C147.676981,65.6678722 147.437906,66.0045979 147.25,66.37 C146.97,66.9 146.58,67.37 146.25,67.87 C146.201369,67.9504698 146.157947,68.0339743 146.12,68.12 C145.076182,70.7543983 142.094398,72.0438182 139.46,71 C136.825602,69.9561818 135.536182,66.9743983 136.58,64.34 L136.58,64.27 C136.643134,64.1160314 136.686805,63.9547852 136.71,63.79 C136.729152,63.6794859 136.806506,63.5879364 136.912273,63.5506068 C137.01804,63.5132773 137.135722,63.5359906 137.22,63.61 C137.605346,63.880803 137.901267,64.2602789 138.07,64.7 C138.21526,65.0984208 138.435952,65.4651091 138.72,65.78 C139.935631,66.9600276 141.739111,67.2986724 143.3,66.64 C144.38,66.29 144.98,65.89 145.23,65.33 C145.242144,65.2672488 145.242144,65.2027512 145.23,65.14 L145.23,64.39 C145.230363,64.3049146 145.206048,64.221549 145.16,64.15 C145.16,64.07 145.16,64.07 144.35,63.46 L144.28,63.46 L143.65,63.12 C142.65,62.45 142.65,61.3 142.65,59.95 L142.65,59 C142.676216,58.6304517 142.86249,58.2907741 143.16,58.07 L143.42,57.87 C143.923658,57.6447073 144.515939,57.7886646 144.86,58.22 C145.374294,58.7016101 146.016671,59.0245349 146.71,59.15 C147.571182,59.3504946 148.475901,59.1149687 149.13,58.52 C149.510054,58.1605411 150.064541,58.0551104 150.55,58.25 C151.193157,58.572662 151.913042,58.7111015 152.63,58.65 C153.862455,58.5037061 154.899171,57.6579647 155.29,56.48 C155.519969,55.952847 155.642362,55.3850806 155.65,54.81 C155.646869,54.3362127 155.551776,53.8675404 155.37,53.43 C155.14387,52.8953651 154.802396,52.4173023 154.37,52.03 C153.980517,51.6686407 153.806383,51.1310959 153.91,50.61 C153.924356,50.4653488 153.947734,50.3217357 153.98,50.18 L154.04,49.36 C154.04,47.93 153.39,46.81 151.85,45.62 C151.172465,45.0469176 150.268572,44.8181772 149.4,45 C149.006661,45.0878857 148.637769,45.2620847 148.32,45.51 C148.19623,45.6331459 148.018067,45.6844187 147.847773,45.6458997 C147.677478,45.6073808 147.538724,45.4844242 147.48,45.32 C145.603526,37.5844517 140.548512,31.0005862 133.56,27.19 C133.076937,26.8911381 132.720928,26.4247661 132.56,25.88 C131.997563,24.0642889 130.749082,22.5395636 129.08,21.63 C127.265395,20.7169846 125.279095,20.1957085 123.25,20.1 L121.57,19.9 L120.86,19.8 C120.223728,19.7787739 119.600923,19.6110955 119.04,19.31 C118.31937,18.7699091 117.926626,17.8975646 118,17 C117.973015,16.4462179 117.889242,15.8966698 117.75,15.36 C116.68,11.54 112.63,9.77 109.1,9.72 L107.41,9.85 C106.747766,10.0115791 106.052813,9.97683144 105.41,9.75 C103.87446,8.95975946 102.462836,7.94905003 101.22,6.75 C98.66,4.39 95.1,4.21 92.96,4.35 C92.350204,4.38516077 91.7399297,4.28969888 91.17,4.07 C85.0082932,1.7570226 78.0945576,2.72050452 72.8,6.63 C72.3498853,7.04223177 71.784739,7.30736215 71.18,7.39 C70.7857638,7.45048355 70.3846397,7.33743949 70.08,7.08 C70.02,6.99 70.08,6.82 70.08,6.75 C70.2606927,6.4009193 70.5431626,6.11496216 70.89,5.93 C71.4496487,5.69718228 72.0548905,5.59459893 72.66,5.63 L73.66,5.57 C73.9874804,5.55228355 74.2891693,5.38672259 74.48,5.12 C74.9877207,4.39654112 75.1757456,3.49619079 75,2.63 C74.7650806,1.78237544 74.1581605,1.08717596 73.35,0.74 C71,-0.41 69.69,-0.09 68.35,0.82 L68.04,1.07 C67.6175482,1.39450436 67.0560485,1.47417662 66.56,1.28 C65.9926022,1.05098894 65.3802288,0.955198696 64.77,1 C63.7105431,1.07499443 62.7294642,1.58544505 62.06,2.41 C61.883972,2.60967924 61.7297648,2.82758069 61.6,3.06 C61.3393183,3.58874717 60.8410705,3.96057389 60.26,4.06 C59.1420925,4.15938792 58.0442345,4.41869795 57,4.83 C55.7171178,5.29281362 54.552593,6.0338748 53.59,7 L53,7.56 L52.57,8 C52.2485376,8.38156273 51.8452109,8.68576676 51.39,8.89 C50.739765,9.12383523 50.0250481,9.10239372 49.39,8.83 L48.6,8.58 C46.4952298,8.09353685 44.2854966,8.66463344 42.68,10.11 C42.2351105,10.5305141 41.8238521,10.9852389 41.45,11.47 C41.0347092,12.0768167 40.5047655,12.5965692 39.89,13 C38.6185288,13.5667043 37.2708812,13.9440456 35.89,14.12 C33.2106619,14.7180271 30.7557544,16.0633718 28.81,18 C28.44,18.36 28.26,18.92 27.81,19.12 C22.1468845,21.5698765 18.1241884,26.7386828 17.14,32.83 C16.9886499,33.7792101 16.9117489,34.738801 16.91,35.7 C16.9122422,43.871516 22.4186254,51.0162637 30.32,53.1 C30.503945,53.1409169 30.6513596,53.2781477 30.7053172,53.4586983 C30.7592749,53.6392489 30.7113311,53.8348626 30.58,53.97 C29.2913721,55.2916251 28.2122526,56.8023925 27.38,58.45 C27.3254851,58.5391569 27.2212669,58.5849989 27.1187087,58.5649332 C27.0161505,58.5448674 26.9368939,58.4631281 26.92,58.36 C26.8580604,58.0303159 26.8279221,57.6954457 26.83,57.36 C26.8147848,56.4807962 27.1368377,55.6291451 27.73,54.98 C27.9517539,54.7582021 28.0956141,54.4704819 28.14,54.16 C28.1376561,53.9536321 28.0374489,53.7606403 27.87,53.64 C27.2552184,53.1960886 26.4772757,53.0426915 25.74,53.22 C24.5794421,53.5315235 23.6408379,54.3844615 23.22,55.51 C23.07,55.81 22.96,56.08 22.86,56.3 C22.6380793,56.7650372 22.120831,57.0111473 21.62,56.89 C20.8038559,56.6774987 19.9354834,56.8387155 19.25,57.33 C18.7745919,57.7441848 18.3752479,58.2382884 18.07,58.79 C17.9610547,58.9730782 17.7704368,59.09231 17.5581448,59.1101664 C17.3458529,59.1280227 17.1379965,59.0423074 17,58.88 C15.68,57.12 14.4,54.09 14.2,48.88 L14.2,46.59 C14.2,38.08 16.2,35.23 16.2,35.2 C16.2577875,35.1217768 16.2892961,35.0272511 16.29,34.93 C16.2886253,34.8328615 16.2571833,34.7385357 16.2,34.66 C16.0801633,34.4988931 15.8696764,34.4341279 15.68,34.5 C13.6290357,35.2858817 12.0248938,36.9302185 11.29,39 C10.6983617,40.9415082 10.5212024,42.985654 10.77,45 L10.86,46.69 L10.86,47.4 C10.9481407,48.0314142 10.8899767,48.674639 10.69,49.28 C10.2721794,50.0460661 9.49916557,50.5526529 8.63,50.63 C8.06707619,50.776552 7.52083252,50.9809745 7,51.24 C3.45,52.99 2.4,57.24 3,60.72 L3.41,62.36 C3.68143005,62.9895097 3.76478622,63.6841444 3.65,64.36 C3.11568897,66.0082443 2.34064391,67.5684437 1.35,68.99 C-1.36,73.32 0.83,78.99 0.93,79.18 C1.0092742,79.3899321 1.23109839,79.5093759 1.45,79.46 C1.66826801,79.41163 1.82015542,79.2133326 1.81,78.99 L1.81,78.9 C1.99862582,73.8572323 4.52782053,69.1907941 8.65,66.28 C10.9328976,64.8107398 13.4057426,63.6601099 16,62.86 C16.4583877,62.6740416 16.9809334,62.8928856 17.17,63.35 L17.17,63.43 C17.1752804,63.4832026 17.1752804,63.5367974 17.17,63.59 C17.346129,65.0577539 18.2969278,66.3178487 19.66,66.89 C19.829024,66.9564461 20.0028591,67.0099338 20.18,67.05 C20.6427452,67.1343999 20.9841149,67.5298892 21,68 C21.0028838,68.4044907 21.0532282,68.8072453 21.15,69.2 C21.1806037,69.3053856 21.2173328,69.408895 21.26,69.51 C21.3155209,69.6483271 21.2873429,69.8062026 21.1873966,69.9167815 C21.0874503,70.0273605 20.9332171,70.0713015 20.79,70.03 C16.94,69.27 12.33,69.2 8.6,71.69 C6.01477973,73.3379217 4.210098,75.9655383 3.6,78.97 C3.32673991,80.2713997 3.37133368,81.6195038 3.73,82.9 L8.38,82.9 C8.79,79.71 9.54,76.47 12.86,74.44 C15.56,72.79 23.08,73.12 27.61,75.67 C27.7663797,75.7443772 27.9007652,75.858088 28,76 C28.0950036,76.1275909 28.0950036,76.3024091 28,76.43 C27.6333865,76.8429635 27.3544201,77.3260516 27.18,77.85 C27.0178908,78.363237 26.588252,78.746843 26.06,78.85 C23.5,79.26 20.06,80.28 18.21,82.76 L18.12,82.87 L33.34,82.87 C32.7459532,81.937272 32.0770849,81.0543658 31.34,80.23 C31.1541296,80.0475018 31.0344763,79.8081953 31,79.55 L31,79.44 C31,79.2 31.24,79.05 31.47,79.01 C31.6833594,78.9780742 31.9013917,79.0057609 32.1,79.09 C32.3893713,79.214581 32.6910256,79.3084289 33,79.37 C34.5602647,79.6896277 36.1771176,79.2094486 37.31,78.09 C37.7291609,77.5501571 37.9514229,76.8833709 37.94,76.2 C37.9362674,75.7411659 37.8481332,75.2869355 37.68,74.86 C37.0914497,73.389207 35.7592326,72.3471002 34.19,72.13 C32.19,71.8 31.77,71.62 30.54,68.33 C30.1679928,67.3363076 29.9129425,66.3026824 29.78,65.25 C29.7082527,64.662534 29.7387019,64.067083 29.87,63.49 C30.6163285,60.1338266 32.5657036,57.167077 35.35,55.15 C36.4225262,54.3780315 37.5970827,53.7587811 38.84,53.31 C39.5729461,53.1599309 40.294661,52.9594546 41,52.71 C44.3092145,52.0777313 47.7354486,52.6600136 50.65,54.35 C50.97,54.53 50.88,54.98 50.59,55.2 C50.1514073,55.5369786 49.8070097,55.9812516 49.59,56.49 C49.2198931,57.2761743 49.0188946,58.1312698 49,59 C49.0215522,59.9118152 49.3372432,60.7922422 49.9,61.51 C49.99,61.64 50.08,61.75 50.17,61.86 C50.505994,62.2755313 50.6042494,62.8348313 50.43,63.34 C50.2680392,63.7683567 50.1833931,64.2220598 50.18,64.68 L50.18,65 C50.2993493,66.0527949 50.845127,67.0106167 51.69,67.65 C52.583862,68.5016646 53.8898931,68.7589722 55.04,68.31 C55.8824723,67.964898 56.5861194,67.3492068 57.04,66.56 C57.1527029,66.3950876 57.3659597,66.332365 57.55,66.41 C57.749343,66.4658457 57.8904233,66.6432038 57.9,66.85 C57.9144811,67.25873 57.8843024,67.6678196 57.81,68.07 C57.7527039,68.6902399 57.5616511,69.2906913 57.25,69.83 C56.61,70.92 56.08,71.03 54.82,71.18 C53.3702197,71.3144465 52.1034349,72.2149321 51.5,73.54 C51.2932643,73.9850885 51.1841553,74.4692596 51.18,74.96 C51.1796353,75.3292404 51.2474381,75.6953756 51.38,76.04 C51.4131611,76.134612 51.3865945,76.2398834 51.3125103,76.3074307 C51.2384262,76.374978 51.1311553,76.391735 51.04,76.35 L50.39,76.11 C49.8650081,75.9073797 49.5031976,75.4210753 49.46,74.86 C49.4028162,73.6400709 48.7914543,72.5131026 47.8,71.8 C47.1562612,71.3594905 46.4477429,71.0221008 45.7,70.8 C45.2764503,70.7074539 44.8982163,70.4706159 44.63,70.13 L43.75,69.13 C43.6271465,68.9937945 43.4351158,68.9435937 43.2613216,69.0022493 C43.0875274,69.0609048 42.9651907,69.2172046 42.95,69.4 C42.9274992,69.6129584 42.8873614,69.8236817 42.83,70.03 C42.6599262,70.6286622 42.4075139,71.2007967 42.08,71.73 L41.94,71.97 C41.2624526,72.8381702 40.8369137,73.8760699 40.71,74.97 L40.71,75.24 C40.7605748,75.7158689 40.4860324,76.1666101 40.04,76.34 C39.8307553,76.4203303 39.6298111,76.5208024 39.44,76.64 C38.775045,77.1093929 38.3974816,77.8871734 38.44,78.7 C38.4312349,79.0644739 38.5029368,79.4263977 38.65,79.76 C38.7937183,80.2031708 39.2610422,80.4544677 39.71,80.33 L39.79,80.33 C40.39,80.12 40.96,79.92 42.19,80.8 C42.8016763,81.2888407 43.2883881,81.916082 43.61,82.63 C43.61,82.72 43.69,82.81 43.72,82.9 L48,82.9 C48.0810698,82.044477 48.5941848,81.2898961 49.36,80.9 C49.84,80.64 50.7,80.96 51.36,81.22 C52.02,81.48 53.05,81.86 53.36,81.07 C53.4847863,80.7171477 53.5424452,80.3440608 53.53,79.97 C53.5317941,79.2683888 53.3490126,78.5786474 53,77.97 C52.9550487,77.88779 52.9644603,77.7865296 53.0237927,77.7140122 C53.0831251,77.6414948 53.1805166,77.612218 53.27,77.64 C53.9945095,77.9090982 54.7742928,77.9949774 55.54,77.89 C57.24,77.65 59.64,76.35 61.41,71.52 C61.9490822,70.0634393 62.2266791,68.5231155 62.23,66.97 C62.2259056,65.8769476 62.1052229,64.7874504 61.87,63.72 C61.8621392,63.670309 61.8621392,63.619691 61.87,63.57 C61.8738279,63.5211951 61.9047488,63.4786789 61.95,63.46 C62.3397983,63.3556072 62.7502017,63.3556072 63.14,63.46 C63.4888598,63.513724 63.8000504,63.7091228 64,64 L64.29,64.56 C64.7926574,65.3222798 65.1079041,66.1926349 65.21,67.1 L65.21,67.23 C65.21,67.84 64.71,68.33 64.48,68.89 L64.2,69.56 C64.1881463,69.6194145 64.1881463,69.6805855 64.2,69.74 C64.2,69.86 64.2,69.86 64.61,70.62 C64.6392467,70.6777282 64.6800998,70.7287946 64.73,70.77 C65.4223701,71.1570673 66.2440618,71.2403225 67,71 C68.6864461,70.8460767 70.1185555,69.7011761 70.64,68.09 L70.76,67.21 C70.7664169,67.1101029 70.7664169,67.0098971 70.76,66.91 C70.7232767,66.3168276 70.8295931,65.7235133 71.07,65.18 C71.1403545,65.0015578 71.1776291,64.8117962 71.18,64.62 L71.18,64.53 C71.18,62.87 70.28,62.35 68.53,61.92 L66.68,61.58 C65.02832,61.389879 63.4121104,60.965624 61.88,60.32 C61.5749659,60.1671093 61.2867355,59.9827758 61.02,59.77 C60.5431627,59.3563405 60.1611451,58.8447097 59.9,58.27 C59.4756985,57.4283917 58.9840995,56.6224369 58.43,55.86 C56.3129049,52.9509046 53.378544,50.7370807 50,49.5 C49.9265271,49.4728228 49.8835367,49.3964442 49.8984226,49.3195334 C49.9133086,49.2426226 49.9816928,49.1878004 50.06,49.19 C53.53,49.19 54.75,50.51 55.38,51.74 C55.91,52.74 56.47,52.74 56.76,52.74 C57.25,52.58 57.53,51.95 57.53,51.05 C57.5303605,50.7784741 57.5069376,50.5074384 57.46,50.24 C57.3001041,49.3665349 56.9216814,48.5477659 56.36,47.86 C56.0592724,47.4397825 56.0882946,46.8676303 56.43,46.48 C57.1582504,45.6737429 57.6040704,44.6522184 57.7,43.57 C57.7024182,43.1117279 57.5778084,42.6617478 57.34,42.27 C56.4364237,40.9159462 54.9626476,40.0501027 53.34,39.92 C51.5053693,39.6762957 49.6409187,40.0267563 48.02,40.92 C47.5123284,41.227953 47.0395627,41.5900714 46.61,42 L46.49,42.11 C45.4724942,42.9829555 44.5807006,43.9925332 43.84,45.11 C43.44,45.7 42.91,46.4 42.29,47.21 C41.9295946,47.6836895 41.4640081,48.0671137 40.93,48.33 C40.58,48.5 40.21,48.65 39.83,48.79 C39.0631756,48.9439028 38.308012,49.1510715 37.57,49.41 C30.8834311,50.6564845 24.2684134,46.9166609 21.8889728,40.5446762 C19.5095323,34.1726914 22.0542171,27.0124316 27.9211972,23.5711424 C33.7881772,20.1298531 41.2797015,21.4033537 45.68,26.59 C45.9884213,27.0094023 45.9884213,27.5805977 45.68,28 C44.4,29.8 43.36,29.67 42.87,29.6 C42.05,29.48 41.87,29.84 41.74,30.07 C41.59,30.54 42,31.07 42.74,31.46 C42.9653369,31.5773593 43.2036207,31.6679743 43.45,31.73 C44.010215,31.8876283 44.5359472,32.1487984 45,32.5 C45.5866726,32.8976871 46.2952009,33.0748191 47,33 C48.9353366,32.9585333 50.521068,31.4507888 50.66,29.52 L50.77,28.64 C50.8116612,28.3954118 50.8350592,28.1480618 50.84,27.9 C50.8290072,27.4797892 50.7373442,27.0656085 50.57,26.68 C50.4357625,26.3507708 50.2574692,26.0412805 50.04,25.76 C49.9235665,25.6144506 49.8229971,25.4568919 49.74,25.29 C49.6596402,25.1206983 49.5624864,24.9598919 49.45,24.81 C45.2354393,19.200149 38.160963,16.5277422 31.29,17.95 C31.2538243,17.9374107 31.2295804,17.9033037 31.2295804,17.865 C31.2295804,17.8266963 31.2538243,17.7925893 31.29,17.78 C34.4929881,16.3943164 38.0858135,16.1992469 41.42,17.23 C46.42,18.83 49.66,24.47 49.7,24.53 C49.8137034,24.7294762 50.0593515,24.8113589 50.27,24.72 C50.4420334,24.6468728 50.5527061,24.4769111 50.55,24.29 C50.5591881,24.2471537 50.5591881,24.2028463 50.55,24.16 C50.2447093,22.9507425 50.0968202,21.7071297 50.11,20.46 C50.0497876,16.9308086 51.3248857,13.5091166 53.68,10.88 C56.83,7.4 59.35,5.88 60.91,5.27 C60.9643535,5.24206306 61.0275906,5.23690633 61.0857522,5.25566813 C61.1439138,5.27442993 61.1922173,5.31556752 61.22,5.37 L61.22,5.37 L61.22,5.43 C61.2141096,5.49987608 61.2141096,5.57012392 61.22,5.64 L61.22,5.8 C58.66,6.74 52.6,10 52,20.45 L52,22.14 C52,31.14 56.12,35.14 60.81,38.57 L61.52,39.07 C61.7343905,39.2194169 61.827418,39.49041 61.75,39.74 C61.6153742,40.1509942 61.515031,40.5724357 61.45,41 C61.4332599,41.2263576 61.4332599,41.4536424 61.45,41.68 C61.407929,42.5747701 61.7760735,43.4399097 62.45,44.03 C63.68,45.09 65.75,44.89 66.78,44.6 C67.5839125,44.3341166 68.3634547,43.9995491 69.11,43.6 C69.1507064,43.5786613 69.1992936,43.5786613 69.24,43.6 C69.3,43.6 69.29,43.7 69.24,43.75 C68.9807653,44.4200496 68.8452376,45.13157 68.84,45.85 C68.8380669,46.3561208 68.9019354,46.8603456 69.03,47.35 C69.5497336,48.9493048 71.1176845,49.9668049 72.79,49.79 C72.9213837,49.7823712 73.0424547,49.7163325 73.12,49.61 C73.1855669,49.5315265 73.221021,49.4322549 73.22,49.33 C73.2222161,49.3000409 73.2222161,49.2699591 73.22,49.24 L72.88,47.58 C72.8650556,47.4470854 72.8650556,47.3129146 72.88,47.18 C72.8723726,47.0935012 72.8723726,47.0064988 72.88,46.92 C72.9099876,46.6982217 73.0628724,46.5125018 73.2747568,46.4404611 C73.4866412,46.3684204 73.721045,46.4224622 73.88,46.58 C78.52,50.19 81.68,53.88 83.51,57.85 C83.7401661,58.3484902 83.8595729,58.8909383 83.86,59.44 C83.8673179,60.2902279 83.5529779,61.1117983 82.98,61.74 L82.57,62.15 C82.073571,62.5566572 81.548921,62.9275881 81,63.26 C75,67.63 70.5,74.81 68.6,82.89 L72.82,82.89 C74.69,76 78.61,70 83.73,66.38 L84.48,65.88 C84.6487168,65.7667372 84.8644046,65.7500324 85.048549,65.8359665 C85.2326933,65.9219005 85.3584344,66.0979388 85.38,66.3 C85.38,66.69 85.43,67.09 85.43,67.5 C85.4218937,69.205386 85.2781067,70.9074235 85,72.59 C84.4340618,76.1866655 83.2821082,79.6661733 81.59,82.89 L86.15,82.89 C87.5463381,79.8149369 88.5217878,76.5656806 89.05,73.23 C89.3487068,71.3747735 89.5025049,69.4991048 89.51,67.62 L89.51,65.67 C89.4291103,64.4877767 90.2025491,63.4158913 91.35,63.12 C93.250657,62.7696567 95.199343,62.7696567 97.1,63.12 C101.46,63.93 108.89,67.51 109.22,75.75 C109.227415,75.8981094 109.247489,76.0453128 109.28,76.19 C109.317574,76.3542923 109.288827,76.5267744 109.2,76.67 C108.879539,77.1909869 108.427783,77.6186031 107.89,77.91 C107.41,78.17 106.55,77.85 105.89,77.59 C105.23,77.33 104.2,76.95 103.89,77.75 C103.780383,78.0718578 103.726279,78.4100082 103.73,78.75 C103.731218,79.3279732 103.850312,79.8996247 104.08,80.43 C104.133071,80.5583391 104.196619,80.6820905 104.27,80.8 C105.034842,81.7201318 106.038132,82.4120562 107.17,82.8 L116.6,82.8 C117.009443,82.6617893 117.394263,82.4592527 117.74,82.2 Z M148.23,49.88 C148.23,49.95 148.11,49.88 148.1,49.88 C148.09,49.88 148.22,49.82 148.23,49.88 Z M25.23,71.23 L24.64,71 C24.31,70.89 24.32,70.46 24.45,70.12 C24.4888223,70.0282028 24.5092093,69.9296658 24.51,69.83 C24.5113511,69.8033504 24.5113511,69.7766496 24.51,69.75 L24.43,69.22 C24.3729203,68.88947 24.3395021,68.5552878 24.33,68.22 C24.329668,67.629518 24.5035986,67.0520683 24.83,66.56 C24.96,66.37 25.1,66.19 25.24,66.01 C25.38,65.83 25.46,65.94 25.46,66.01 L25.46,66.6 C25.4683984,67.9477766 25.6328266,69.2900483 25.95,70.6 C26.0404526,70.8006465 25.9890656,71.0368443 25.8234291,71.1817762 C25.6577927,71.326708 25.4168638,71.3462866 25.23,71.23 L25.23,71.23 Z M55.16,58.13 L56.16,59.72 C56.59,60.42 55.71,61.32 55.16,60.72 C54.6900479,60.207466 54.2990886,59.6277676 54,59 C53.62,58.23 54.64,57.45 55.16,58.16 L55.16,58.13 Z M78.26,13 L78.26,13 C79.30216,12.1117687 80.7736617,11.9307818 82,12.54 C83.7296612,13.2484503 84.8322597,14.9622719 84.76,16.83 C84.6467816,17.951138 85.463862,18.9517816 86.585,19.065 C87.706138,19.1782184 88.7067816,18.361138 88.82,17.24 C88.82,17.08 89.07,16.97 89.12,17.13 C89.4500961,18.0960995 89.6223049,19.1090923 89.63,20.13 C89.63,23.13 88.3,26.05 85.69,28.99 C85.5963975,29.0916873 85.4505541,29.126595 85.3210549,29.0783072 C85.1915558,29.0300194 85.1041731,28.9081461 85.1,28.77 C85.0693779,25.9272977 83.7712474,23.246695 81.56,21.46 C79.05,19.46 77.5,17.1 77.4,15.22 L77.4,15 C77.3993396,14.2434155 77.7104169,13.5199798 78.26,13 L78.26,13 Z M73.37,12.38 C73.56,12.23 73.81,12.45 73.72,12.68 C73.4399354,13.4216349 73.2943242,14.207258 73.29,15 L73.29,15.39 C73.3719041,16.4291807 73.6394709,17.4452572 74.08,18.39 C74.2609067,18.8152748 74.0642943,19.3068056 73.64,19.49 L73.57,19.49 C72.377551,19.924302 71.2904322,20.6058812 70.38,21.49 C70.2764675,21.5873216 70.1281974,21.620633 69.9929856,21.5769492 C69.8577739,21.5332654 69.7570208,21.4195004 69.73,21.28 C69.6758549,20.8789545 69.6491262,20.4746831 69.65,20.07 C69.6691371,17.0773667 71.0355892,14.2526309 73.37,12.38 L73.37,12.38 Z M73.09,34.8 C71.2732143,34.1631534 69.3196012,34.0216373 67.43,34.39 C66.5422141,34.6073848 65.6948659,34.9652291 64.92,35.45 C64.4708082,35.7571102 63.8791918,35.7571102 63.43,35.45 C59.14,32.32 56.07,29.45 56.07,22.21 L56.07,20.7 C56.49,13.55 60,10.89 61.92,10 C62.1149162,9.92935279 62.3299388,9.93921191 62.5175722,10.0273996 C62.7052056,10.1155873 62.85001,10.2748469 62.92,10.47 L62.92,10.47 C63.0200759,10.7536614 63.1689854,11.0176373 63.36,11.25 C63.774396,11.8210413 64.343426,12.2616926 65,12.52 C65.51,12.71 66,13.09 65.94,13.63 L65.94,14 C65.8730886,14.3731765 65.641699,14.6963873 65.31,14.88 L64.74,15.15 C63.9198004,15.6747444 62.9731832,15.968403 62,16 C61.4252567,15.8226477 60.8819605,15.5560614 60.39,15.21 L59.72,14.9 C59.6572733,14.8876035 59.5927267,14.8876035 59.53,14.9 C59.42,14.9 59.42,14.9 58.66,15.28 C58.6022718,15.3092467 58.5512054,15.3500998 58.51,15.4 C58.0753749,16.0876193 57.9552933,16.9281905 58.18,17.71 C58.3131193,19.3781945 59.4194244,20.8101142 61,21.36 C61.4138042,21.4880133 61.8483074,21.5355371 62.28,21.5 C62.8436146,21.4968937 63.3995501,21.63073 63.9,21.89 C64.0720775,21.9597409 64.2545807,22.0002971 64.44,22.01 C64.5964424,22.0218551 64.7535576,22.0218551 64.91,22.01 C65.3767037,21.9527737 65.810155,22.2605241 65.91,22.72 C66.79,27.63 70.09,31.64 73.34,34.5 C73.4043078,34.5321539 73.4465768,34.5961731 73.4508846,34.6679423 C73.4551924,34.7397114 73.4208846,34.8083271 73.3608846,34.8479423 C73.3008846,34.8875575 73.2243078,34.8921539 73.16,34.86 L73.09,34.8 Z M71.22,25.68 C71.06,25.39 71.39,25.13 71.72,25.14 C72.2533756,25.1672194 72.7754825,24.9799811 73.17,24.62 C74.65,23.25 75.88,22.97 77.5,23.7 C78.036941,23.9584837 78.5323788,24.2955162 78.97,24.7 C80.3309737,25.8791983 81.0694413,27.6219818 80.97,29.42 C80.9482761,30.9244306 80.60743,32.4071111 79.97,33.77 C79.8738368,33.9701356 79.6860191,34.1107165 79.4668938,34.1465734 C79.2477686,34.1824302 79.0249384,34.1090462 78.87,33.95 C78.410504,33.5001999 77.9264281,33.0762162 77.42,32.68 C74.920162,30.7695005 72.8146142,28.3922691 71.22,25.68 L71.22,25.68 Z M86.94,54.42 C86.9033255,54.5613635 86.7848808,54.6665631 86.6401767,54.6862955 C86.4954725,54.7060279 86.3531853,54.6363826 86.28,54.51 C83.7554311,50.1208739 80.3508723,46.300959 76.28,43.29 C75.8865894,43.0486808 75.7615586,42.5351615 76,42.14 L76,42.14 L76.1,42.02 C76.5158351,41.6296189 76.979541,41.2936001 77.48,41.02 C78.0236813,40.7294275 78.6609516,40.6682208 79.25,40.85 C80.5261678,41.2479179 81.7048171,41.9087791 82.71,42.79 C85.1772317,45.0277287 86.7981856,48.0471526 87.3,51.34 L87.3,51.71 C87.2995349,52.6252233 87.1784934,53.5363967 86.94,54.42 Z M99.45,23.11 C99.1125734,26.0072819 97.9103639,28.7357748 96,30.94 C95.61,31.42 95.16,31.84 94.73,32.29 C91.9817866,35.1131005 89.9276941,38.5365879 88.73,42.29 C88.6784284,42.4439465 88.5445459,42.5557209 88.3838651,42.5789773 C88.2231844,42.6022338 88.0631043,42.5330066 87.97,42.4 C87.2523636,41.3815445 86.4202569,40.4487797 85.49,39.62 C84.8090623,39.0385086 84.0721208,38.5259993 83.29,38.09 C82.9758435,37.9072522 82.868552,37.504909 83.05,37.19 L83.12,37.09 C83.6433056,36.564548 84.1940772,36.0671846 84.77,35.6 C88.88,32.31 93.77,26.96 93.77,20.19 C93.7315174,14.5997876 90.409897,9.55468492 85.29,7.31 C85.12,7.23 85.13,6.97 85.29,6.98 L85.83,6.98 C89.8063834,7.35428571 93.4766163,9.27559157 96.05,12.33 C98.2644779,14.9271716 99.4837158,18.2269115 99.49,21.64 C99.5171944,22.1302651 99.5038155,22.6219392 99.45,23.11 L99.45,23.11 Z M103.63,20 C103.607224,20.0203715 103.572776,20.0203715 103.55,20 L103.55,20 C103.210464,16.2228763 101.712125,12.6429281 99.26,9.75 L99.35,9.75 C100.761263,11.0955234 101.913675,12.688564 102.75,14.45 C103.407025,16.0322725 103.714045,17.7379349 103.65,19.45 L103.65,20 L103.63,20 Z M122,23.36 C120.879207,23.2057854 119.750891,23.1123155 118.62,23.08 C113.956573,22.970194 109.320433,23.8211741 105,25.58 C104.9,25.58 104.79,25.48 104.89,25.42 C106.89,24.07 111.56,21.85 118.89,22.82 C120.02,22.97 121.04,23.14 121.98,23.32 L122,23.36 Z M135.13,74.18 C133.58,75.47 130.78,75.91 129.41,76.06 C129.271294,76.1030575 129.120552,76.0809976 129,76 L128.87,75.88 L128.87,75.88 C127.51411,74.486318 126.545512,72.7628345 126.06,70.88 C126.034048,70.644526 126.120874,70.4106334 126.294192,70.2491328 C126.46751,70.0876321 126.706942,70.0175116 126.94,70.06 C128.521044,70.250195 130.124325,70.0226325 131.59,69.4 L131.7,69.35 C132.100507,69.1555706 132.582859,69.3208205 132.78,69.72 L132.78,69.72 C133.280201,70.9207418 134.030135,72.0013277 134.98,72.89 C135.157708,73.0199461 135.276511,73.2151699 135.310269,73.432717 C135.344026,73.650264 135.289972,73.8723104 135.16,74.05 L135.16,74.05 L135.13,74.18 Z M38.21,39.85 C38.3825841,39.9270209 38.5595576,39.9938034 38.74,40.05 C39.5246257,40.3784067 40.4138691,40.3457907 41.172328,39.9607862 C41.9307869,39.5757816 42.4819821,38.8772106 42.68,38.05 C42.8088583,37.6732182 42.8763843,37.2781908 42.88,36.88 C42.8826211,36.4356138 42.7798074,35.996942 42.58,35.6 C42.1723077,34.8684626 41.487639,34.3315382 40.68,34.11 C40.5,34.05 40.31,34.01 40.13,33.96 C39.9598829,33.9177275 39.8233963,33.7910521 39.768574,33.6245549 C39.7137518,33.4580577 39.7482773,33.2750734 39.86,33.14 C39.9873591,32.9995118 40.1075134,32.8526566 40.22,32.7 C40.6546066,32.1447279 40.8999251,31.4648454 40.92,30.76 C40.883957,29.7683051 40.3598462,28.8585984 39.52,28.33 C38.8743653,27.7739312 38.0168477,27.5299452 37.1751851,27.6628393 C36.3335226,27.7957333 35.5928961,28.2920579 35.15,29.02 C35.0374836,29.1704128 34.9339692,29.3273539 34.84,29.49 C34.7499312,29.6417933 34.5865038,29.734853 34.41,29.734853 C34.2334962,29.734853 34.0700688,29.6417933 33.98,29.49 C33.8860308,29.3273539 33.7825164,29.1704128 33.67,29.02 C33.2250345,28.2915789 32.4826932,27.7952506 31.6395158,27.6624213 C30.7963385,27.529592 29.9373598,27.7736575 29.29,28.33 C28.4539744,28.8609137 27.9338359,29.7702206 27.9,30.76 C27.9178994,31.4635784 28.1595979,32.1431365 28.59,32.7 C28.71,32.85 28.82,33 28.95,33.14 C29.0676441,33.2731365 29.1058025,33.458702 29.0502371,33.6274561 C28.9946717,33.7962102 28.8537293,33.9228035 28.68,33.96 C28.4928354,33.9792237 28.310265,34.0299377 28.14,34.11 C27.3296661,34.3312016 26.6417433,34.8678534 26.23,35.6 C26.0301926,35.996942 25.9273789,36.4356138 25.93,36.88 C25.9361056,37.2779642 26.0035655,37.6726049 26.13,38.05 C26.3280179,38.8772106 26.8792131,39.5757816 27.637672,39.9607862 C28.3961309,40.3457907 29.2853743,40.3784067 30.07,40.05 C30.2500322,39.9926175 30.4269404,39.9258597 30.6,39.85 C30.7632959,39.7775328 30.9528497,39.797699 31.097244,39.9029005 C31.2416382,40.008102 31.3189306,40.1823524 31.3,40.36 L31.3,40.92 C31.244858,41.761453 31.5587051,42.5852356 32.1597599,43.1766888 C32.7608146,43.7681421 33.589544,44.0686839 34.43,44 C35.2798012,44.0705537 36.1175855,43.7635207 36.7205531,43.1605531 C37.3235207,42.5575855 37.6305537,41.7198012 37.56,40.87 L37.56,40.31 C37.5489622,40.1450461 37.6201752,39.9852998 37.7502409,39.8832482 C37.8803066,39.7811967 38.0524086,39.7500343 38.21,39.8 L38.21,39.85 Z M124.83,42.25 C124.603664,42.2326953 124.376336,42.2326953 124.15,42.25 C123.029972,42.3160941 122.030285,42.9746952 121.52751,43.9777147 C121.024736,44.9807341 121.095257,46.1757894 121.71251,47.1127147 C122.329763,48.0496401 123.399972,48.5860942 124.52,48.52 L124.8,48.52 L125.36,48.44 C125.533976,48.4032725 125.714368,48.4617028 125.833771,48.5934579 C125.953174,48.7252129 125.993621,48.9104677 125.94,49.08 C125.882789,49.2604868 125.836045,49.4441256 125.8,49.63 C125.741844,49.9062635 125.711692,50.1876868 125.71,50.47 C125.701431,51.0217775 125.854372,51.5640216 126.15,52.03 C126.63499,52.7280703 127.381514,53.2005079 128.22,53.34 C129.034606,53.5848099 129.915617,53.4596432 130.629805,52.9976354 C131.343992,52.5356276 131.819336,51.783367 131.93,50.94 C131.983679,50.6991136 132.023743,50.455394 132.05,50.21 C132.058923,50.0676688 132.144821,49.9415572 132.273999,49.8811352 C132.403177,49.8207132 132.555034,49.8356169 132.67,49.92 C132.859281,50.0608428 133.056252,50.191044 133.26,50.31 L133.26,50.31 C133.959727,50.7488541 134.806026,50.8893036 135.61,50.7 C136.425993,50.4530471 137.107581,49.88686 137.5,49.13 C137.816443,48.6075739 137.988952,48.0106906 138,47.4 C137.967562,46.311937 137.336586,45.3308466 136.36,44.85 L135.86,44.59 C135.697469,44.5170319 135.586042,44.3630928 135.567499,44.1859013 C135.548956,44.0087097 135.626097,43.8350367 135.77,43.73 C135.919657,43.6177615 136.063195,43.4975895 136.2,43.37 C136.915132,42.7900993 137.333333,41.9206812 137.34,41 C137.314249,40.2010628 136.989488,39.4409088 136.43,38.87 C135.915085,38.190285 135.127111,37.771643 134.275634,37.725409 C133.424157,37.679175 132.595486,38.0100353 132.01,38.63 C131.869845,38.7563321 131.736332,38.8898446 131.61,39.03 C131.490654,39.1642746 131.308447,39.2242025 131.132697,39.1869849 C130.956948,39.1497673 130.814673,39.0211257 130.76,38.85 C130.702877,38.6731454 130.63611,38.499552 130.56,38.33 C129.942759,37.0290088 128.530446,36.3028377 127.113202,36.5577546 C125.695957,36.8126715 124.625207,37.9854661 124.5,39.42 C124.519271,39.9531989 124.655845,40.4755942 124.9,40.95 C125,41.16 125.1,41.36 125.22,41.56 C125.295945,41.6954813 125.292928,41.8613878 125.212106,41.9940178 C125.131285,42.1266478 124.985222,42.205386 124.83,42.2 L124.83,42.25 Z" id="Shape" fill="#3BC5F7"></path>
                        <path d="M32.75,91.79 L41.42,103.23 L41.42,111.74 C41.42,112.43 41.29,112.69 40.66,112.69 L40.66,113.13 L46.66,113.13 L46.66,112.69 C46.03,112.69 45.87,112.44 45.87,111.74 L45.87,103.23 L54.09,91.79 C54.4277065,91.1685963 55.0325236,90.7371109 55.73,90.62 L55.73,90.18 L49.3,90.18 L49.3,90.62 C49.526355,90.6326611 49.7114123,90.8051008 49.74,91.03 C49.6837982,91.2016829 49.5955756,91.3611622 49.48,91.5 L43.68,99.38 L38.07,91.66 C37.82,91.31 37.63,91.12 37.63,90.91 C37.63,90.7 37.82,90.63 38.04,90.63 L38.04,90.19 L31.2,90.19 L31.2,90.63 C32,90.62 32.27,91.16 32.75,91.79 Z" id="Shape" fill="#3E3A39"></path>
                        <path d="M66.25,112.69 C66.1279922,112.692681 66.0099193,112.64677 65.9217708,112.562373 C65.8336223,112.477975 65.7826235,112.362009 65.78,112.24 L65.78,112.24 C65.78,111.83 66.25,111.24 68.08,107.1 L78.89,107.1 C81,111.61 81.28,112.05 81.28,112.39 C81.28,112.55 81.12,112.71 80.71,112.71 L80.71,113.15 L87,113.15 L87,112.71 C86.34,112.71 86.21,112.49 85.77,111.51 L76.62,91.93 C76.4643499,91.6812502 76.3653423,91.4012977 76.33,91.11 C76.33,90.89 76.52,90.7 76.99,90.64 L76.99,90.2 L70.12,90.2 L70.12,90.64 C70.53,90.7 70.79,90.86 70.79,91.21 C70.7411026,91.543027 70.625458,91.8627503 70.45,92.15 L61.84,111.5 C61.4,112.5 61.21,112.67 60.64,112.7 L60.64,113.14 L66.25,113.14 L66.25,112.69 Z M73.25,95.23 L77,103.49 L69.5,103.49 L73.25,95.23 Z" id="Shape" fill="#3E3A39"></path>
                        <path d="M101.61,112.69 C100.92,112.69 100.75,112.44 100.75,111.74 L100.75,96.36 L114.94,111.58 C115.35,112.02 115.54,112.15 115.54,112.43 C115.54,112.71 115.22,112.68 114.91,112.68 L114.91,113.12 L120.74,113.12 L120.74,112.68 C120.11,112.68 119.88,112.43 119.88,111.73 L119.88,91.57 C119.88,90.88 120.11,90.63 120.74,90.63 L120.74,90.19 L115.1,90.19 L115.1,90.63 C115.85,90.63 115.91,90.88 115.91,91.57 L115.91,106 L102.25,91.51 C102.03,91.29 101.9,91.13 101.9,91.04 C101.9,90.76 102.15,90.63 102.75,90.63 L102.75,90.19 L96,90.19 L96,90.63 C96.7,90.63 96.76,90.88 96.76,91.57 L96.76,111.74 C96.76,112.43 96.7,112.69 96,112.69 L96,113.13 L101.58,113.13 L101.61,112.69 Z" id="Shape" fill="#3E3A39"></path>
                        <path d="M155.83,111.49 L146.69,91.92 C146.537867,91.6704117 146.442291,91.3905102 146.41,91.1 C146.41,90.88 146.6,90.69 147.07,90.63 L147.07,90.19 L140.2,90.19 L140.2,90.63 C140.61,90.69 140.86,90.85 140.86,91.2 C140.811103,91.533027 140.695458,91.8527503 140.52,92.14 L131.91,111.49 C131.47,112.49 131.28,112.66 130.71,112.69 L130.71,113.13 L136.32,113.13 L136.32,112.69 C136.19534,112.692681 136.074724,112.645716 135.9847,112.559443 C135.894677,112.47317 135.842624,112.354661 135.84,112.23 L135.84,112.23 C135.84,111.82 136.32,111.23 138.14,107.09 L149,107.09 C151.11,111.6 151.4,112.04 151.4,112.38 C151.4,112.54 151.24,112.7 150.83,112.7 L150.83,113.14 L157.11,113.14 L157.11,112.7 C156.39,112.69 156.27,112.47 155.83,111.49 Z M139.62,103.49 L143.34,95.23 L147.12,103.49 L139.62,103.49 Z" id="Shape" fill="#3E3A39"></path>
                        <path d="M25.28,111.49 L16.14,91.91 C15.9878667,91.6604117 15.8922906,91.3805102 15.86,91.09 C15.86,90.87 16.05,90.68 16.53,90.62 L16.53,90.18 L9.65,90.18 L9.65,90.62 C10.06,90.68 10.31,90.84 10.31,91.19 C10.2587804,91.5224385 10.1432966,91.8417171 9.97,92.13 L1.36,111.49 C0.92,112.49 0.73,112.66 0.16,112.69 L0.16,113.13 L5.77,113.13 L5.77,112.69 C5.64799221,112.692681 5.52991929,112.64677 5.4417708,112.562373 C5.35362232,112.477975 5.30262353,112.362009 5.3,112.24 L5.3,112.24 C5.3,111.83 5.77,111.24 7.6,107.1 L18.41,107.1 C20.52,111.61 20.81,112.05 20.81,112.39 C20.81,112.55 20.65,112.71 20.24,112.71 L20.24,113.15 L26.51,113.15 L26.51,112.71 C25.85,112.69 25.73,112.47 25.28,111.49 Z M9.08,103.49 L12.8,95.23 L16.58,103.49 L9.08,103.49 Z" id="Shape" fill="#3E3A39"></path>
                        <path d="M82.71,146.67 L82.41,146.67 C82.02,146.67 81.95,146.6 81.95,145.96 L81.95,141.81 C81.9594458,141.787623 81.9594458,141.762377 81.95,141.74 C81.924495,141.728869 81.895505,141.728869 81.87,141.74 C81.1895458,141.861379 80.5009496,141.931576 79.81,141.95 C79.6646933,141.954239 79.5449763,142.065405 79.53,142.21 C79.5056707,142.345197 79.5949816,142.474698 79.73,142.5 L79.73,142.5 C80.52,142.62 80.39,142.64 80.39,143.25 L80.39,146.25 C80.1235872,146.510603 79.762504,146.651426 79.39,146.64 C79.07,146.64 78.52,146.49 78.52,145.51 L78.52,141.85 C78.5396496,141.841068 78.5530416,141.822332 78.5551314,141.800849 C78.5572212,141.779366 78.5476912,141.758401 78.5301314,141.745849 C78.5125716,141.733298 78.4896496,141.731068 78.47,141.74 L78.47,141.74 C77.8412109,141.846328 77.2068324,141.916444 76.57,141.95 C76.45,141.95 76.24,142.02 76.24,142.23 C76.2298876,142.361749 76.3132571,142.482634 76.44,142.52 C77.09,142.66 76.96,142.66 76.96,143.25 L76.96,145.8 C76.829093,146.721896 77.4685494,147.575995 78.39,147.71 L78.69,147.71 C79.0851776,147.698101 79.4679634,147.569345 79.79,147.34 C79.9831035,147.224358 80.166984,147.09397 80.34,146.95 L80.4,146.95 L80.4,147.57 C80.4206167,147.659499 80.4905015,147.729383 80.58,147.75 L80.58,147.75 C81.2851536,147.56344 81.999429,147.413242 82.72,147.3 C82.8458708,147.251189 82.923633,147.124314 82.91,146.99 C82.940951,146.927747 82.9456807,146.855691 82.9231327,146.789926 C82.9005848,146.724161 82.8526375,146.670166 82.79,146.64 L82.79,146.64 L82.71,146.67 Z" id="Shape" fill="#3E3A39"></path>
                        <path d="M90,130.46 C90.0215739,130.352996 89.9919892,130.242054 89.92,130.16 L89.62,130.16 C89.01,130.08 88.9,130.07 88.9,128.62 L88.9,126.8 C88.9,126.55 88.9,126.55 89.27,126.55 C89.6074566,126.487225 89.9423048,126.671391 90.07,126.99 L90.54,127.8 L91.17,128.87 C92.08,130.25 92.83,130.73 94.12,130.73 C94.4291143,130.735655 94.737842,130.705453 95.04,130.64 L95.04,130.64 C95.12,130.533333 95.12,130.386667 95.04,130.28 C94.6718837,130.244267 94.3232335,130.097834 94.04,129.86 C93.0966399,128.810058 92.2963608,127.639902 91.66,126.38 L91.6,126.29 C91.582777,126.248378 91.582777,126.201622 91.6,126.16 C92.5849284,125.836147 93.2661074,124.935876 93.31,123.9 C93.3375273,122.999672 92.8207113,122.171189 92,121.8 C91.1673455,121.431739 90.258923,121.267195 89.35,121.32 C88.2849405,121.289616 87.2190554,121.333053 86.16,121.45 C86.0788306,121.489577 86.0253139,121.569852 86.02,121.66 C86.0060433,121.760435 86.0350901,121.862098 86.1,121.94 L86.47,121.94 C87.07,122 87.07,122.1 87.07,123.45 L87.07,128.52 C87.07,129.96 86.97,129.98 86.35,130.06 L86,130.06 C85.9119513,130.117171 85.8588194,130.215019 85.8588194,130.32 C85.8588194,130.424981 85.9119513,130.522829 86,130.58 L89.74,130.58 C89.8436505,130.601748 89.9493033,130.552985 90,130.46 L90,130.46 Z M88.86,122.62 C88.86,122 88.86,122 89.53,122 C90.0206527,121.997341 90.4922651,122.189705 90.8410844,122.534773 C91.1899036,122.879842 91.387355,123.349347 91.39,123.84 L91.39,123.84 L91.39,124 C91.4778311,124.531336 91.304037,125.072418 90.9232274,125.453227 C90.5424179,125.834037 90.0013356,126.007831 89.47,125.92 C88.86,125.92 88.86,125.92 88.86,125.51 L88.86,122.62 Z" id="Shape" fill="#3E3A39"></path>
                        <path d="M101.42,129.26 C101.420069,129.152752 101.36288,129.053624 101.27,129 C101.197885,128.96264 101.112115,128.96264 101.04,129 L101.04,129 C100.774371,129.441221 100.283736,129.696197 99.77,129.66 C99.2235763,129.644317 98.7057918,129.412091 98.3306702,129.014462 C97.9555487,128.616833 97.7538532,128.08641 97.77,127.54 L97.77,127.54 L97.77,127.48 C97.77,127.35 97.77,127.35 98.01,127.35 L100.4,127.35 C101,127.35 101.3,127.29 101.4,127.15 C101.462378,127.044477 101.49034,126.922144 101.48,126.8 C101.441963,125.699162 100.52098,124.836298 99.42,124.87 L99.34,124.87 C97.6831458,124.87 96.34,126.213146 96.34,127.87 L96.34,128 C96.2962063,128.704158 96.5339488,129.396869 97.0009209,129.925729 C97.4678931,130.454589 98.1258383,130.776271 98.83,130.82 L99,130.82 C100.050364,130.845882 101.009896,130.227341 101.42,129.26 Z M99.11,125.51 C99.3385026,125.489327 99.5647049,125.569015 99.7297945,125.728345 C99.8948841,125.887676 99.9825503,126.110908 99.97,126.34 C99.9734333,126.435205 99.928224,126.525624 99.85,126.58 C99.6421057,126.655205 99.4199258,126.682551 99.2,126.66 L97.8,126.66 C97.8975029,126.008338 98.4511988,125.52227 99.11,125.51 Z" id="Shape" fill="#3E3A39"></path>
                        <path d="M107.63,129 C107.63,127.87 106.82,127.39 106.06,127 C105.3,126.61 105.17,126.43 105.17,126.11 C105.175227,125.929627 105.251933,125.758727 105.383226,125.634937 C105.514519,125.511146 105.689631,125.444617 105.87,125.45 L105.87,125.45 C106.34,125.45 106.78,125.89 107,126.57 C107.083626,126.646623 107.201563,126.673254 107.31,126.64 C107.389029,126.625009 107.456017,126.572907 107.49,126.5 C107.523229,126.026855 107.45152,125.552212 107.28,125.11 C106.865622,124.898047 106.405363,124.791569 105.94,124.8 C105.324071,124.771261 104.722396,124.991035 104.27,125.41 C103.962448,125.720247 103.796093,126.143367 103.81,126.58 C103.81,127.58 104.66,128.07 105.31,128.38 C105.96,128.69 106.22,129.01 106.22,129.38 C106.230926,129.560424 106.169569,129.737775 106.049482,129.872873 C105.929395,130.007971 105.760461,130.089698 105.58,130.1 L105.5,130.1 C104.61,130.1 104.18,128.98 104.07,128.64 C104.004071,128.561188 103.90136,128.523147 103.8,128.54 C103.710791,128.540645 103.626498,128.58096 103.57,128.65 C103.513704,129.1974 103.578572,129.750481 103.76,130.27 L103.76,130.27 C104.236215,130.593218 104.805308,130.751299 105.38,130.72 C106.44,130.82 107.63,130.35 107.63,129 Z" id="Shape" fill="#3E3A39"></path>
                        <path d="M115.77,127.77 C115.783377,127.011447 115.494813,126.278661 114.967811,125.732904 C114.440809,125.187148 113.718557,124.873146 112.96,124.86 L112.77,124.86 C111.974271,124.838497 111.202619,125.134124 110.624944,125.68179 C110.047269,126.229456 109.710937,126.984256 109.69,127.78 L109.69,127.78 L109.69,127.94 C109.660242,128.677456 109.924956,129.396477 110.425799,129.938587 C110.926641,130.480698 111.622498,130.801397 112.36,130.83 L112.69,130.83 C113.460471,130.876485 114.217846,130.61496 114.795475,130.102971 C115.373103,129.590983 115.723656,128.87048 115.77,128.1 L115.77,127.83 L115.77,127.77 Z M112.84,130.14 C111.84,130.14 111.45,128.93 111.45,127.73 C111.45,126.35 111.9,125.53 112.65,125.53 C113.59,125.53 114.01,126.77 114.01,128.01 C114,128.64 113.9,130.14 112.84,130.14 L112.84,130.14 Z" id="Shape" fill="#3E3A39"></path>
                        <path d="M121,130.46 C121.02498,130.352917 120.994982,130.240427 120.92,130.16 L120.92,130.16 L120.38,130.11 C119.96,130.11 119.9,129.98 119.9,128.94 L119.9,127 C119.9,126.3 119.99,126.05 120.24,126.05 C120.470435,126.075059 120.688963,126.165245 120.87,126.31 C120.991643,126.389989 121.134425,126.431779 121.28,126.43 C121.497482,126.432668 121.707115,126.348825 121.862774,126.196917 C122.018433,126.045009 122.107364,125.837483 122.11,125.62 L122.11,125.62 L122.11,125.57 C122.107365,125.371082 122.02581,125.18136 121.883278,125.042579 C121.740747,124.903798 121.548918,124.82733 121.35,124.83 L121.29,124.83 C120.851457,124.89113 120.442674,125.086787 120.12,125.39 L119.89,125.56 L119.89,124.82 C119.857923,124.709685 119.754793,124.635431 119.64,124.64 C119.073512,124.942212 118.481158,125.19321 117.87,125.39 C117.794633,125.516276 117.794633,125.673724 117.87,125.8 L118.06,125.92 C118.37,126.1 118.37,126.25 118.37,126.86 L118.37,128.86 C118.37,129.86 118.3,129.98 117.89,130.05 L117.64,130.05 C117.569365,130.132771 117.539957,130.243049 117.56,130.35 C117.566046,130.429305 117.610988,130.500463 117.68,130.54 L121,130.54 C121.004476,130.513521 121.004476,130.486479 121,130.46 Z" id="Shape" fill="#3E3A39"></path>
                        <path d="M127.72,129.66 L127.72,129.66 C127.54411,129.81051 127.321449,129.895333 127.09,129.9 C126.3,129.9 126.14,129.26 126.14,128.31 L126.14,126.18 C126.14,125.77 126.14,125.77 126.34,125.77 L127.66,125.77 C127.811435,125.685076 127.903717,125.523583 127.9,125.35 C127.9,125.17 127.9,125.05 127.75,125.01 L126.36,125.01 C126.16,125.01 126.16,125.01 126.16,124.81 L126.16,124 C126.116401,123.912772 126.035406,123.850185 125.94,123.83 C125.853213,123.79599 125.756787,123.79599 125.67,123.83 C125.483613,124.169505 125.224004,124.463273 124.91,124.69 C124.578619,124.93245 124.21514,125.127652 123.83,125.27 C123.746819,125.319938 123.700042,125.413492 123.71,125.51 C123.718852,125.612073 123.779183,125.70257 123.87,125.75 L124.38,125.75 C124.56,125.75 124.58,125.75 124.58,126.19 L124.58,129 C124.58,129.94 124.77,130.79 126.19,130.79 C126.882838,130.819668 127.550648,130.528193 128,130 C128.041252,129.914727 128.041252,129.815273 128,129.73 L127.72,129.66 Z" id="Shape" fill="#3E3A39"></path>
                        <path d="M104.16,145.86 C104.087885,145.82264 104.002115,145.82264 103.93,145.86 L103.93,145.86 C103.664371,146.301221 103.173736,146.556197 102.66,146.52 C102.113576,146.504317 101.595792,146.272091 101.22067,145.874462 C100.845549,145.476833 100.643853,144.94641 100.66,144.4 L100.66,144.4 L100.66,144.34 C100.66,144.21 100.66,144.21 100.9,144.21 L103.29,144.21 C103.89,144.21 104.19,144.15 104.29,144.01 C104.352378,143.904477 104.38034,143.782144 104.37,143.66 C104.331963,142.559162 103.41098,141.696298 102.31,141.73 L102.23,141.73 C100.573146,141.73 99.23,143.073146 99.23,144.73 L99.23,144.86 C99.1833815,145.564198 99.4185195,146.258058 99.8836506,146.788833 C100.348782,147.319607 101.005775,147.643785 101.71,147.69 L102,147.69 C103.043139,147.707621 103.992615,147.090461 104.4,146.13 C104.389227,145.996522 104.291294,145.886348 104.16,145.86 Z M102,142.37 C102.228503,142.349327 102.454705,142.429015 102.619794,142.588345 C102.784884,142.747676 102.87255,142.970908 102.86,143.2 C102.863433,143.295205 102.818224,143.385624 102.74,143.44 C102.532106,143.515205 102.309926,143.542551 102.09,143.52 L100.7,143.52 C100.796846,142.871987 101.345012,142.38707 102,142.37 L102,142.37 Z" id="Shape" fill="#3E3A39"></path>
                        <path d="M55.63,145.86 C55.5578848,145.82264 55.4721152,145.82264 55.4,145.86 L55.4,145.86 C55.1343708,146.301221 54.643736,146.556197 54.13,146.52 C53.5835763,146.504317 53.0657918,146.272091 52.6906702,145.874462 C52.3155487,145.476833 52.1138532,144.94641 52.13,144.4 L52.13,144.4 L52.13,144.34 C52.13,144.21 52.13,144.21 52.37,144.21 L54.76,144.21 C55.36,144.21 55.66,144.15 55.76,144.01 C55.822378,143.904477 55.8503397,143.782144 55.84,143.66 C55.8019634,142.559162 54.8809797,141.696298 53.78,141.73 L53.7,141.73 C52.0431458,141.73 50.7,143.073146 50.7,144.73 L50.7,144.86 C50.6533815,145.564198 50.8885195,146.258058 51.3536506,146.788833 C51.8187816,147.319607 52.4757752,147.643785 53.18,147.69 L53.43,147.69 C54.4731388,147.707621 55.4226146,147.090461 55.83,146.13 C55.8247153,146.007606 55.7455418,145.900722 55.63,145.86 Z M53.47,142.37 C53.6985026,142.349327 53.9247049,142.429015 54.0897945,142.588345 C54.2548841,142.747676 54.3425503,142.970908 54.33,143.2 C54.3334333,143.295205 54.288224,143.385624 54.21,143.44 C54.0021057,143.515205 53.7799258,143.542551 53.56,143.52 L52.17,143.52 C52.2668457,142.871987 52.8150124,142.38707 53.47,142.37 L53.47,142.37 Z" id="Shape" fill="#3E3A39"></path>
                        <path d="M81,127.77 C81.0133774,127.011447 80.7248129,126.278661 80.197811,125.732904 C79.6708091,125.187148 78.9485567,124.873146 78.19,124.86 L78,124.86 C76.3431458,124.86 75,126.203146 75,127.86 L75,127.93 C74.9702419,128.667456 75.2349563,129.386477 75.7357987,129.928587 C76.236641,130.470698 76.9324985,130.791397 77.67,130.82 L78,130.82 C78.7718817,130.844242 79.5217445,130.560671 80.0844362,130.031741 C80.6471278,129.50281 80.9764962,128.771905 81,128 L81,128 L81,127.77 Z M76.68,127.77 C76.68,126.39 77.13,125.57 77.88,125.57 C78.82,125.57 79.24,126.81 79.24,128.05 C79.24,128.69 79.13,130.18 78.07,130.18 C77.01,130.18 76.72,128.93 76.72,127.73 L76.68,127.77 Z" id="Shape" fill="#3E3A39"></path>
                        <path d="M62.22,124.86 C61.4242714,124.838497 60.6526191,125.134124 60.0749441,125.68179 C59.4972691,126.229456 59.1609367,126.984256 59.14,127.78 L59.14,127.78 L59.14,127.94 C59.1102419,128.677456 59.3749563,129.396477 59.8757987,129.938587 C60.376641,130.480698 61.0724985,130.801397 61.81,130.83 L62.14,130.83 C62.9105108,130.879304 63.6690313,130.620382 64.2485727,130.110235 C64.8281142,129.600089 65.1811647,128.880541 65.23,128.11 L65.23,128.11 L65.23,127.83 C65.3093384,126.253492 64.0964345,124.910794 62.52,124.83 L62.52,124.83 L62.22,124.86 Z M62.28,130.14 C61.28,130.14 60.89,128.93 60.89,127.73 C60.89,126.35 61.34,125.53 62.09,125.53 C63.03,125.53 63.45,126.77 63.45,128.01 C63.45,128.64 63.33,130.14 62.28,130.14 L62.28,130.14 Z" id="Shape" fill="#3E3A39"></path>
                        <path d="M39.86,127.93 C39.8302419,128.667456 40.0949563,129.386477 40.5957987,129.928587 C41.096641,130.470698 41.7924985,130.791397 42.53,130.82 L42.86,130.82 C43.6305108,130.869304 44.3890313,130.610382 44.9685727,130.100235 C45.5481142,129.590089 45.9011647,128.870541 45.95,128.1 L45.95,128.1 L45.95,127.82 C45.9633774,127.061447 45.6748129,126.328661 45.147811,125.782904 C44.6208091,125.237148 43.8985567,124.923146 43.14,124.91 L43,124.91 C42.2042515,124.885769 41.4315031,125.178827 40.8519357,125.724633 C40.2723683,126.270439 39.9335147,127.02423 39.91,127.82 L39.91,127.82 C39.8855262,127.852591 39.8684622,127.890131 39.86,127.93 L39.86,127.93 Z M44.11,128 C44.11,128.64 44,130.13 42.94,130.13 C41.88,130.13 41.55,128.92 41.55,127.72 C41.55,126.34 42,125.52 42.75,125.52 C43.75,125.52 44.12,126.77 44.12,128 L44.11,128 Z" id="Shape" fill="#3E3A39"></path>
                        <path d="M112.25,146.68 L112.14,146.68 C112.030154,146.744087 111.906906,146.781746 111.78,146.79 C111.634337,146.799321 111.491874,146.744528 111.39,146.64 C111.196511,146.345029 111.121511,145.987886 111.18,145.64 L111.28,143.48 C111.338164,143.004998 111.196973,142.527121 110.89,142.16 C110.51372,141.821052 110.01494,141.651178 109.51,141.69 C108.712689,141.750255 107.954073,142.057896 107.34,142.57 C106.87,143.01 106.78,143.32 106.78,143.5 C106.78,143.68 106.87,143.79 107.11,143.79 C107.433176,143.778981 107.748861,143.689766 108.03,143.53 C108.209457,143.408525 108.317847,143.206694 108.32,142.99 C108.356721,142.650793 108.660611,142.405 109,142.44 C109.19354,142.431845 109.381806,142.504255 109.52,142.64 C109.740807,142.942455 109.83416,143.319458 109.78,143.69 L109.78,144 C109.78,144.11 109.78,144.21 109.5,144.31 L107.98,144.86 C106.93,145.22 106.79,145.74 106.79,146.21 C106.784657,146.57601 106.92495,146.929148 107.180007,147.191707 C107.435065,147.454266 107.783989,147.604734 108.15,147.61 L108.26,147.61 C108.689993,147.602218 109.109191,147.474033 109.47,147.24 L109.59,147.17 C109.659401,147.119756 109.737324,147.082489 109.82,147.06 C109.82,147.06 109.89,147.06 109.95,147.16 L109.95,147.16 C110.214747,147.424262 110.576037,147.568779 110.95,147.56 C111.492377,147.552607 112.008488,147.325229 112.38,146.93 C112.426316,146.838881 112.426316,146.731119 112.38,146.64 C112.332874,146.633334 112.285227,146.647995 112.25,146.68 Z M109.67,146.2 C109.705246,146.500812 109.490663,146.773511 109.19,146.81 L109.07,146.81 C108.672355,146.81 108.35,146.487645 108.35,146.09 L108.35,146.09 C108.33479,145.664917 108.639728,145.295557 109.06,145.23 C109.248861,145.151205 109.447206,145.097417 109.65,145.07 L109.65,145.24 L109.67,146.2 Z" id="Shape" fill="#3E3A39"></path>
                        <path d="M48.75,146.68 L48.64,146.68 C48.5301536,146.744087 48.4069064,146.781746 48.28,146.79 C48.1343375,146.799321 47.9918744,146.744528 47.89,146.64 C47.6965112,146.345029 47.6215112,145.987886 47.68,145.64 L47.78,143.48 C47.8381637,143.004998 47.6969729,142.527121 47.39,142.16 C47.0137203,141.821052 46.5149404,141.651178 46.01,141.69 C45.2126888,141.750255 44.4540731,142.057896 43.84,142.57 C43.37,143.01 43.28,143.32 43.28,143.5 C43.28,143.68 43.37,143.79 43.61,143.79 C43.933176,143.778981 44.2488613,143.689766 44.53,143.53 C44.7094565,143.408525 44.8178472,143.206694 44.82,142.99 C44.8567214,142.650793 45.160611,142.405 45.5,142.44 C45.6935399,142.431845 45.8818063,142.504255 46.02,142.64 C46.2408073,142.942455 46.3341603,143.319458 46.28,143.69 L46.28,144 C46.28,144.11 46.28,144.21 46,144.31 L44.48,144.86 C43.48,145.22 43.29,145.74 43.29,146.21 C43.2846571,146.57601 43.4249498,146.929148 43.6800074,147.191707 C43.9350651,147.454266 44.2839889,147.604734 44.65,147.61 L44.76,147.61 C45.1899932,147.602218 45.609191,147.474033 45.97,147.24 L46.09,147.17 C46.1594015,147.119756 46.2373242,147.082489 46.32,147.06 C46.32,147.06 46.39,147.06 46.45,147.16 L46.45,147.16 C46.7147467,147.424262 47.0760369,147.568779 47.45,147.56 C47.9923765,147.552607 48.508488,147.325229 48.88,146.93 C48.926316,146.838881 48.926316,146.731119 48.88,146.64 C48.8328742,146.633334 48.7852271,146.647995 48.75,146.68 L48.75,146.68 Z M46.17,146.2 C46.2052464,146.500812 45.9906633,146.773511 45.69,146.81 L45.57,146.81 C45.172355,146.81 44.85,146.487645 44.85,146.09 L44.85,146.09 C44.8347903,145.664917 45.1397275,145.295557 45.56,145.23 C45.7488614,145.151205 45.9472058,145.097417 46.15,145.07 L46.15,145.24 L46.17,146.2 Z" id="Shape" fill="#3E3A39"></path>
                        <path d="M71.27,130.07 C71.2884661,130.118295 71.2884661,130.171705 71.27,130.22 C71.2738271,130.276602 71.2738271,130.333398 71.27,130.39 L71.27,130.6 C71.294885,130.706011 71.3752604,130.790214 71.48,130.82 C72.1882492,130.553859 72.9275448,130.379116 73.68,130.3 C73.7783174,130.245641 73.8395308,130.142343 73.84,130.03 C73.8572505,129.905809 73.816726,129.780552 73.73,129.69 C73.7114359,129.679282 73.6885641,129.679282 73.67,129.69 C73.4916953,129.762142 73.3022092,129.802746 73.11,129.81 C72.92,129.81 72.84,129.32 72.84,128.17 L72.84,120.65 C72.8033277,120.539831 72.6956289,120.469412 72.58,120.48 L72.39,120.55 C71.88,120.75 71.23,121 70.75,121.14 C70.6852377,121.172548 70.6431533,121.237587 70.64,121.31 C70.6303239,121.407606 70.6674114,121.504034 70.74,121.57 L70.93,121.7 C71.19,121.87 71.22,121.92 71.22,122.85 L71.22,124.85 C70.967117,124.774713 70.7036966,124.740941 70.44,124.75 C68.6482866,124.676671 67.1357462,126.068387 67.06,127.86 L67.06,127.86 L67.06,128 C66.996674,129.021511 67.5478559,129.982573 68.4615303,130.443761 C69.3752047,130.904949 70.4757631,130.777623 71.26,130.12 L71.27,130.07 Z M68.75,127.42 C68.75,126.22 69.36,125.42 70.22,125.42 C70.5695953,125.415695 70.898829,125.584053 71.1,125.87 C71.225516,126.055084 71.2853708,126.276899 71.27,126.5 L71.27,129.13 C71.2885742,129.252586 71.2599868,129.377656 71.19,129.48 C70.9722441,129.658775 70.7015879,129.76071 70.42,129.77 C69.42,129.77 68.75,128.77 68.75,127.42 L68.75,127.42 Z" id="Shape" fill="#3E3A39"></path>
                        <path d="M67.77,147.23 L67.52,147.23 C67.4228349,147.219254 67.3281759,147.192208 67.24,147.15 C67.1702521,147.109668 67.1170934,147.045877 67.09,146.97 C67.046867,146.854711 67.0232109,146.733051 67.02,146.61 L67.02,141.86 L67.02,141.86 C66.9683944,141.794067 66.8930033,141.750987 66.81,141.74 L66.81,141.74 C66.5598041,141.888748 66.2991157,142.019092 66.03,142.13 C65.7045414,142.27084 65.3705491,142.391078 65.03,142.49 L65.03,142.49 C65.0115757,142.548586 65.0115757,142.611414 65.03,142.67 C65.0141588,142.72556 65.0141588,142.78444 65.03,142.84 L65.03,142.84 L65.2,142.94 C65.2717708,142.98662 65.3387625,143.040213 65.4,143.1 C65.4492641,143.149653 65.483868,143.21194 65.5,143.28 C65.5082424,143.366471 65.5082424,143.453529 65.5,143.54 L65.5,146.61 C65.4966055,146.733031 65.4729552,146.854661 65.43,146.97 C65.4029066,147.045877 65.3497479,147.109668 65.28,147.15 C65.1917571,147.192031 65.0971285,147.219068 65,147.23 L64.75,147.23 C64.692857,147.296004 64.6673006,147.383626 64.68,147.47 C64.6728744,147.552939 64.71112,147.633254 64.78,147.68 L67.78,147.68 C67.84888,147.633254 67.8871256,147.552939 67.88,147.47 C67.8926994,147.383626 67.867143,147.296004 67.81,147.23 L67.77,147.23 Z" id="Shape" fill="#3E3A39"></path>
                        <path d="M65.57,138.53 C65.2134653,138.854068 65.1387032,139.386295 65.3921578,139.796048 C65.6456125,140.205801 66.1552143,140.376567 66.6043853,140.202262 C67.0535563,140.027957 67.3145752,139.558144 67.2252901,139.084683 C67.136005,138.611223 66.7218042,138.268742 66.24,138.27 C65.990252,138.259868 65.7475393,138.354055 65.57,138.53 L65.57,138.53 Z" id="Shape" fill="#3E3A39"></path>
                        <path d="M57.83,130.72 L57.83,130.43 C57.8302362,130.372949 57.7868154,130.325186 57.73,130.32 C57.12,130.24 57.07,130.21 57.07,129.46 L57.07,127 C57.07,125.67 56.43,124.9 55.31,124.9 C54.950299,124.927614 54.6047643,125.052006 54.31,125.26 L53.99,125.48 C53.79,125.61 53.59,125.75 53.39,125.91 C53.1468596,125.30147 52.5552829,124.904438 51.9,124.91 C51.4926964,124.931851 51.1003434,125.070737 50.77,125.31 C50.5662518,125.428956 50.3692807,125.559157 50.18,125.7 L49.97,125.85 L49.97,125 C49.97,125 49.97,124.91 49.91,124.93 C49.2548591,125.139783 48.5867868,125.306801 47.91,125.43 C47.8571595,125.439763 47.8191057,125.486273 47.82,125.54 L47.82,125.77 C47.8197638,125.827051 47.8631846,125.874814 47.92,125.88 C48.48,125.99 48.52,126.07 48.52,126.81 L48.52,129.52 C48.52,130.3 48.45,130.36 47.76,130.43 C47.7013134,130.434717 47.6547171,130.481313 47.65,130.54 L47.65,130.83 C47.65,130.879706 47.6902944,130.92 47.74,130.92 L50.58,130.92 C50.6297056,130.92 50.67,130.879706 50.67,130.83 L50.67,130.54 C50.67,130.47 50.6,130.44 50.54,130.43 C50.11,130.36 50.04,130.29 50.04,129.57 L50.04,126.47 C50.3409015,126.194854 50.7238768,126.026205 51.13,125.99 C51.75,125.99 52.07,126.42 52.07,127.26 L52.07,129.57 C52.07,130.31 52.01,130.37 51.42,130.44 C51.3631846,130.445186 51.3197638,130.492949 51.32,130.55 L51.32,130.84 C51.32,130.889706 51.3602944,130.93 51.41,130.93 L54.23,130.93 C54.2797056,130.93 54.32,130.889706 54.32,130.84 L54.32,130.55 C54.3202362,130.492949 54.2768154,130.445186 54.22,130.44 C53.65,130.37 53.58,130.3 53.58,129.59 L53.58,126.49 C53.8805045,126.208183 54.2690216,126.038648 54.68,126.01 C55.31,126.01 55.68,126.45 55.68,127.31 L55.68,129.52 C55.68,130.31 55.58,130.37 55.03,130.44 C54.9731846,130.445186 54.9297638,130.492949 54.93,130.55 L54.93,130.84 C54.93,130.889706 54.9702944,130.93 55.02,130.93 L57.87,130.93 C57.9061757,130.917411 57.9304196,130.883304 57.9304196,130.845 C57.9304196,130.806696 57.9061757,130.772589 57.87,130.76 L57.83,130.72 Z" id="Shape" fill="#3E3A39"></path>
                        <path d="M95,142.55 L94.93,142.55 C95.8086335,142.373304 96.4624496,141.633675 96.53,140.74 C96.5847586,139.983974 96.1941755,139.265301 95.53,138.9 C94.6730193,138.507428 93.7293954,138.342122 92.79,138.42 C91.7385321,138.39528 90.6865398,138.435355 89.64,138.54 L89.64,138.54 C89.5755711,138.587128 89.5352988,138.66035 89.53,138.74 C89.515992,138.842152 89.5490958,138.945141 89.62,139.02 L90,139.02 C90.6,139.09 90.61,139.18 90.61,140.52 L90.61,145.57 C90.61,147.01 90.5,147.02 89.89,147.1 L89.59,147.1 C89.5193649,147.182771 89.4899575,147.293049 89.51,147.4 C89.5191513,147.478242 89.5632822,147.548116 89.63,147.59 L93.2,147.59 C94.3166548,147.707143 95.4389097,147.427464 96.37,146.8 C96.9333107,146.336733 97.2507784,145.639043 97.23,144.91 C97.1765143,143.678435 96.226564,142.673106 95,142.55 L95,142.55 Z M92.36,139.55 C92.36,139.04 92.36,139.03 93.03,139.03 C93.4792152,138.995051 93.9217945,139.154786 94.2451449,139.46857 C94.5684953,139.782354 94.7414467,140.219938 94.72,140.67 C94.72,141.86 94.17,142.36 92.89,142.36 C92.36,142.36 92.36,142.36 92.36,142.05 L92.36,139.55 Z M93.61,147 C92.45,147 92.33,146.51 92.33,145.29 L92.33,143.29 C92.33,143.06 92.33,142.99 92.9,142.99 C93.5298594,142.900229 94.1670043,143.095369 94.6385585,143.522474 C95.1101128,143.949578 95.3671763,144.564356 95.34,145.2 C95.37593,145.641613 95.2348938,146.079404 94.9479387,146.416998 C94.6609836,146.754592 94.251633,146.964315 93.81,147 L93.61,147 L93.61,147 Z" id="Shape" fill="#3E3A39"></path>
                        <path d="M62.71,145.88 C62.6378848,145.84264 62.5521152,145.84264 62.48,145.88 L62.48,145.88 C62.2245177,146.306434 61.7567264,146.559502 61.26,146.54 L60.85,146.54 C59.920761,146.26951 59.3185247,145.372472 59.42,144.41 C59.42,143.07 60.04,142.6 60.56,142.6 C61.0206971,142.638831 61.4511822,142.845179 61.77,143.18 C61.8557638,143.273206 61.973705,143.33039 62.1,143.34 C62.4410801,143.252289 62.6846839,142.951844 62.7,142.6 C62.7036785,142.400039 62.6058087,142.211828 62.44,142.1 C62.0976583,141.869732 61.6924801,141.750973 61.28,141.76 C60.5099596,141.795918 59.7696979,142.068279 59.16,142.54 C58.3382403,143.095591 57.8296429,144.008839 57.79,145 C57.7698132,146.343799 58.7660162,147.486629 60.1,147.65 C60.6023309,147.722728 61.1149903,147.653449 61.58,147.45 C62.0810377,147.209627 62.4938302,146.817823 62.76,146.33 C62.76,146.26 62.83,146.21 62.86,146.13 C62.8565767,146.02634 62.7998535,145.931802 62.71,145.88 Z" id="Shape" fill="#3E3A39"></path>
                        <path d="M74.55,145.88 C74.4778848,145.84264 74.3921152,145.84264 74.32,145.88 L74.32,145.88 C74.0645177,146.306434 73.5967264,146.559502 73.1,146.54 L72.69,146.54 C71.760761,146.26951 71.1585247,145.372472 71.26,144.41 C71.26,143.07 71.88,142.6 72.4,142.6 C72.8606971,142.638831 73.2911822,142.845179 73.61,143.18 C73.6957638,143.273206 73.813705,143.33039 73.94,143.34 C74.2810801,143.252289 74.5246839,142.951844 74.54,142.6 C74.5436785,142.400039 74.4458087,142.211828 74.28,142.1 C73.9376583,141.869732 73.5324801,141.750973 73.12,141.76 C72.3499596,141.795918 71.6096979,142.068279 71,142.54 C70.1782403,143.095591 69.6696429,144.008839 69.63,145 C69.6098132,146.343799 70.6060162,147.486629 71.94,147.65 C72.4423309,147.722728 72.9549903,147.653449 73.42,147.45 C73.9210377,147.209627 74.3338302,146.817823 74.6,146.33 C74.6,146.26 74.67,146.21 74.7,146.13 C74.6965767,146.02634 74.6398535,145.931802 74.55,145.88 L74.55,145.88 Z" id="Shape" fill="#3E3A39"></path>
                        <path d="M118.91,145.88 C118.837885,145.84264 118.752115,145.84264 118.68,145.88 L118.68,145.88 C118.424518,146.306434 117.956726,146.559502 117.46,146.54 L117.05,146.54 C116.120761,146.26951 115.518525,145.372472 115.62,144.41 C115.62,143.07 116.24,142.6 116.76,142.6 C117.220697,142.638831 117.651182,142.845179 117.97,143.18 C118.055764,143.273206 118.173705,143.33039 118.3,143.34 C118.64108,143.252289 118.884684,142.951844 118.9,142.6 C118.903679,142.400039 118.805809,142.211828 118.64,142.1 C118.297658,141.869732 117.89248,141.750973 117.48,141.76 C116.70996,141.795918 115.969698,142.068279 115.36,142.54 C114.54204,143.097778 114.037353,144.010667 114,145 C113.979813,146.343799 114.976016,147.486629 116.31,147.65 C116.812331,147.722728 117.32499,147.653449 117.79,147.45 C118.291038,147.209627 118.70383,146.817823 118.97,146.33 C118.97,146.26 119.04,146.21 119.07,146.13 C119.064515,146.024272 119.00371,145.929264 118.91,145.88 Z" id="Shape" fill="#3E3A39"></path>
                        <path d="M127.68,147.23 L127.42,147.23 C126.9,147.16 126.81,147.15 126.81,145.92 L126.81,145.92 L126.81,144 C126.81,142.57 126.16,141.78 124.97,141.78 C124.355669,141.827569 123.776493,142.085372 123.33,142.51 L123.33,138.67 C123.350372,138.647224 123.350372,138.612776 123.33,138.59 L123.28,138.59 C122.577247,138.7841 121.862326,138.931093 121.14,139.03 C121.094236,139.035116 121.059715,139.073951 121.06,139.12 L121.06,139.47 C121.06,139.519706 121.100294,139.56 121.15,139.56 C121.82,139.62 121.82,139.62 121.82,140.34 L121.82,145.91 C121.82,147.14 121.82,147.15 121.26,147.22 L121,147.22 C120.941197,147.262091 120.901737,147.326011 120.890458,147.397441 C120.87918,147.468871 120.897027,147.541839 120.94,147.6 L120.94,147.6 L121,147.66 L124.09,147.66 C124.165718,147.631772 124.21701,147.560753 124.22,147.48 C124.239054,147.387141 124.2131,147.29074 124.15,147.22 L124,147.22 C123.48,147.15 123.43,147.14 123.43,145.91 L123.43,143.24 C123.694747,142.975738 124.056037,142.831221 124.43,142.84 C125.06,142.84 125.37,143.28 125.37,144.14 L125.37,145.91 L125.37,145.91 C125.37,147.14 125.24,147.19 124.84,147.22 L124.72,147.22 C124.661197,147.262091 124.621737,147.326011 124.610458,147.397441 C124.59918,147.468871 124.617027,147.541839 124.66,147.6 L124.66,147.6 L124.72,147.66 L127.77,147.66 C127.845718,147.631772 127.89701,147.560753 127.9,147.48 C127.919054,147.387141 127.8931,147.29074 127.83,147.22 L127.68,147.23 Z" id="Shape" fill="#3E3A39"></path>
                        <path d="M30.16,130.06 L29.86,130.06 C29.7682859,130.122166 29.718303,130.229822 29.73,130.34 C29.7328112,130.438604 29.7855523,130.529017 29.87,130.58 L33.75,130.58 C33.8380487,130.522829 33.8911806,130.424981 33.8911806,130.32 C33.8911806,130.215019 33.8380487,130.117171 33.75,130.06 L33.45,130.06 C32.83,129.98 32.73,129.97 32.73,128.52 L32.73,126.2 C32.86,126.2 33.01,126.28 33.27,126.62 L34.03,127.62 L34.12,127.76 C34.84,128.76 36.43,130.65 38.12,130.76 C38.425646,130.795384 38.734354,130.795384 39.04,130.76 L39.04,130.76 C39.12,130.653333 39.12,130.506667 39.04,130.4 C38.7261714,130.299704 38.4269285,130.158489 38.15,129.98 C37.4379832,129.50942 36.834553,128.892354 36.38,128.17 C36.38,128.17 35.02,126.23 34.38,125.17 L34.69,124.86 C35.31,124.21 36.58,122.76 36.94,122.38 C37.3,122 38.16,122 38.52,121.97 L38.89,121.97 C38.9549099,121.892098 38.9839567,121.790435 38.97,121.69 C38.9646861,121.599852 38.9111694,121.519577 38.83,121.48 L35.08,121.48 C34.9988306,121.519577 34.9453139,121.599852 34.94,121.69 C34.9111991,121.79706 34.933333,121.911418 35,122 L35.37,122 C35.73,122 35.99,122.16 35.76,122.42 C35.53,122.68 34.32,124.17 33.51,124.97 C33.2653033,125.236354 32.9694051,125.450625 32.64,125.6 L32.64,123.5 C32.64,122.16 32.64,122.05 33.24,122 L33.61,122 C33.6749099,121.922098 33.7039567,121.820435 33.69,121.72 C33.6846861,121.629852 33.6311694,121.549577 33.55,121.51 L29.82,121.51 C29.7388306,121.549577 29.6853139,121.629852 29.68,121.72 C29.6660433,121.820435 29.6950901,121.922098 29.76,122 L30.13,122 C30.73,122.06 30.73,122.16 30.73,123.5 L30.73,128.57 C30.88,130 30.78,130 30.16,130.06 Z" id="Shape" fill="#3E3A39"></path>
                        <path d="M42.75,138.26 L39.48,138.26 C39.3972734,138.302938 39.3438599,138.386874 39.34,138.48 C39.327126,138.585091 39.3598895,138.690663 39.43,138.77 L39.81,138.77 C40.13,138.77 40.3,138.85 40.35,139.07 C40.4197461,139.325323 40.4197461,139.594677 40.35,139.85 C40.16,140.64 39.56,142.85 39,144.67 C38.31,142.79 37.5,140.58 36.69,138.31 C36.6767053,138.272192 36.6400128,138.247731 36.6,138.25 L36,138.25 C35.9571608,138.248932 35.9195095,138.278216 35.91,138.32 C35.32,140.25 34.69,142.18 34.07,144.04 L33.88,144.63 C33.43,143.17 32.96,141.63 32.42,139.7 C32.3406217,139.50007 32.3164448,139.282478 32.35,139.07 C32.43,138.84 32.58,138.81 32.9,138.77 L33.28,138.77 C33.3501105,138.690663 33.382874,138.585091 33.37,138.48 C33.3661401,138.386874 33.3127266,138.302938 33.23,138.26 L29.17,138.26 C29.0872734,138.302938 29.0338599,138.386874 29.03,138.48 C29.017126,138.585091 29.0498895,138.690663 29.12,138.77 L29.5,138.77 C29.7267787,138.812999 29.9316999,138.933126 30.08,139.11 C30.3173251,139.401688 30.4849173,139.743713 30.57,140.11 C31.32,142.53 32.06,144.96 32.83,147.54 C32.8395095,147.581784 32.8771608,147.611068 32.92,147.61 L33.55,147.61 C33.5900128,147.612269 33.6267053,147.587808 33.64,147.55 C34.08,146.2 34.52,144.87 34.99,143.46 L35.73,141.25 C36.51,143.39 37.3,145.56 38.01,147.55 C38.0232947,147.587808 38.0599872,147.612269 38.1,147.61 L38.73,147.61 C38.7728392,147.611068 38.8104905,147.581784 38.82,147.54 C39.91,143.86 40.75,141.28 41.14,140.18 C41.2324886,139.76709 41.3984622,139.374173 41.63,139.02 C41.7986076,138.847984 42.0291315,138.750731 42.27,138.75 L42.65,138.75 C42.7201105,138.670663 42.752874,138.565091 42.74,138.46 C42.7699024,138.397342 42.7735031,138.325328 42.75,138.26 Z" id="Shape" fill="#3E3A39"></path>
                    </g>
                </g>
            </g>
        </g>
    </g>
</svg>