<?xml version="1.0" encoding="UTF-8"?>
<svg width="182px" height="195px" viewBox="0 0 182 195" version="1.1" xmlns="http://www.w3.org/2000/svg" xmlns:xlink="http://www.w3.org/1999/xlink">
    <!-- Generator: Sketch 43.2 (39069) - http://www.bohemiancoding.com/sketch -->
    <title>group-landing-jakarta-logo-new</title>
    <desc>Created with Sketch.</desc>
    <defs></defs>
    <g id="HCD-&amp;-Training" stroke="none" stroke-width="1" fill="none" fill-rule="evenodd">
        <g id="group-landing-jakarta-logo-new">
            <g id="group-landing-ayana-logo-(2)">
                <rect id="Rectangle-path" x="0" y="0" width="182" height="195"></rect>
                <g id="group-landing-jakarta-logo-new" transform="translate(11.000000, 33.000000)" fill-rule="nonzero">
                    <g id="Group">
                        <g id="Scene_1_x5F_25.0" transform="translate(0.000000, 89.000000)" fill="#3F3B3C">
                            <path d="M156.829,22.6 C156.729,22.5 156.529,22.184 156.229,21.651 L150.654,9.751 C149.434,9.287 147.809,9.287 145.779,9.751 L147.529,13.651 L140.079,13.651 L141.829,9.751 C140.226,9.231 138.817,9.231 137.604,9.751 L132.279,21.651 C132.079,22.151 131.913,22.467 131.779,22.6 C131.612,22.734 131.395,22.817 131.129,22.85 L131.129,23.3 L136.679,23.3 L136.679,22.85 C136.379,22.784 136.23,22.618 136.23,22.35 C136.23,22.217 136.379,21.834 136.679,21.201 C137.346,19.835 137.98,18.517 138.579,17.251 L149.379,17.251 C150.946,20.651 151.73,22.401 151.73,22.501 C151.73,22.734 151.546,22.851 151.179,22.851 L151.179,23.301 L157.53,23.301 L157.53,22.851 C157.196,22.85 156.962,22.767 156.829,22.6" id="Shape"></path>
                            <path d="M38.279,0.35 L31.479,0.35 L31.479,0.75 C31.812,0.75 32.096,0.883 32.329,1.15 C32.462,1.216 32.696,1.483 33.029,1.95 L41.729,13.4 L41.729,21.9 C41.729,22.533 41.479,22.849 40.979,22.849 L40.979,23.299 L46.979,23.299 L46.979,22.849 C46.446,22.849 46.179,22.533 46.179,21.9 L46.179,13.4 L54.429,1.95 C54.995,1.217 55.546,0.816 56.079,0.75 L56.079,0.35 L49.629,0.35 L49.629,0.75 C49.896,0.85 50.029,1 50.029,1.2 C49.929,1.367 49.845,1.516 49.779,1.65 L44.029,9.5 L38.329,1.85 C38.029,1.383 37.879,1.133 37.879,1.1 C37.879,0.868 38.012,0.75 38.279,0.75 L38.279,0.35" id="Shape"></path>
                            <path d="M62.129,21.65 C61.929,22.15 61.762,22.466 61.629,22.599 C61.462,22.733 61.246,22.816 60.979,22.849 L60.979,23.299 L66.529,23.299 L66.529,22.849 C66.229,22.783 66.079,22.617 66.079,22.349 C66.079,22.216 66.229,21.833 66.529,21.2 C67.229,19.834 67.862,18.516 68.429,17.25 L79.229,17.25 C80.829,20.65 81.629,22.4 81.629,22.5 C81.629,22.733 81.429,22.85 81.029,22.85 L81.029,23.3 L87.379,23.3 L87.379,22.85 C87.046,22.85 86.813,22.767 86.679,22.6 C86.579,22.5 86.379,22.184 86.079,21.651 L80.504,9.751 C78.75,9.298 77.125,9.298 75.629,9.751 L77.379,13.651 L69.929,13.651 L71.679,9.751 C70.404,9.286 68.995,9.286 67.454,9.751 L62.129,21.65" id="Shape"></path>
                            <path d="M6.979,9.75 L1.629,21.65 C1.429,22.15 1.262,22.466 1.129,22.599 C0.962,22.733 0.746,22.816 0.479,22.849 L0.479,23.299 L6.029,23.299 L6.029,22.849 C5.762,22.783 5.629,22.617 5.629,22.349 C5.629,22.316 6.379,20.617 7.879,17.249 L18.729,17.249 C20.296,20.649 21.079,22.399 21.079,22.499 C21.079,22.732 20.896,22.849 20.529,22.849 L20.529,23.299 L26.879,23.299 L26.879,22.849 C26.546,22.849 26.313,22.766 26.179,22.599 C26.079,22.499 25.879,22.183 25.579,21.65 L20.004,9.75 C18.252,9.307 16.627,9.307 15.129,9.75 L16.879,13.65 L9.379,13.65 L11.129,9.75 C9.746,9.286 8.362,9.286 6.979,9.75" id="Shape"></path>
                            <path d="M121.179,0.35 L115.53,0.35 L115.53,0.75 C115.863,0.75 116.08,0.834 116.179,1 C116.28,1.1 116.329,1.334 116.329,1.7 L116.329,16.2 L102.679,1.65 C102.413,1.45 102.28,1.299 102.28,1.2 C102.28,0.9 102.563,0.75 103.13,0.75 L103.13,0.35 L96.43,0.35 L96.43,0.75 C96.764,0.75 96.981,0.834 97.08,1 C97.146,1.1 97.18,1.334 97.18,1.7 L97.18,21.9 C97.18,22.299 97.147,22.549 97.08,22.65 C96.98,22.783 96.764,22.849 96.43,22.849 L96.43,23.299 L102.031,23.299 L102.031,22.849 C101.43,22.849 101.131,22.533 101.131,21.9 L101.131,6.5 L115.381,21.75 C115.747,22.15 115.931,22.434 115.931,22.6 C115.931,22.767 115.747,22.85 115.381,22.85 L115.381,23.3 L121.181,23.3 L121.181,22.85 C120.581,22.85 120.282,22.534 120.282,21.901 L120.282,1.701 C120.282,1.067 120.582,0.751 121.181,0.751 L121.181,0.35" id="Shape"></path>
                        </g>
                        <g id="Scene_1_x5F_24.0" transform="translate(6.000000, 89.000000)" fill="#3F3B3C">
                            <path d="M10.829,0.35 L3.929,0.35 L3.929,0.75 C4.396,0.85 4.629,1.05 4.629,1.35 L4.329,2.3 L0.979,9.75 C2.035,10.077 3.418,10.077 5.129,9.75 L7.129,5.35 L9.129,9.75 C10.641,10.146 12.266,10.146 14.004,9.75 L10.429,2.1 C10.262,1.734 10.179,1.451 10.179,1.25 C10.179,0.983 10.396,0.816 10.829,0.75 L10.829,0.35" id="Shape"></path>
                            <path d="M141.479,0.35 L134.579,0.35 L134.579,0.75 C135.046,0.85 135.279,1.05 135.279,1.35 C135.279,1.484 135.163,1.8 134.928,2.3 L131.604,9.75 C133.144,10.08 134.553,10.08 135.829,9.75 L137.779,5.35 L139.779,9.75 C141.213,10.068 142.838,10.068 144.654,9.75 L141.079,2.1 C140.913,1.734 140.829,1.451 140.829,1.25 C140.829,0.983 141.046,0.816 141.479,0.75 L141.479,0.35" id="Shape"></path>
                            <path d="M71.329,0.35 L64.429,0.35 L64.429,0.75 C64.896,0.85 65.129,1.05 65.129,1.35 C65.129,1.484 65.012,1.8 64.779,2.3 L61.454,9.75 C62.73,10.08 64.139,10.08 65.679,9.75 L67.629,5.35 L69.629,9.75 C71.384,10.075 73.009,10.075 74.504,9.75 L70.929,2.1 C70.762,1.734 70.679,1.451 70.679,1.25 C70.679,0.983 70.896,0.816 71.329,0.75 L71.329,0.35" id="Shape"></path>
                        </g>
                        <g id="Scene_1_x5F_22.0" transform="translate(4.000000, 69.000000)" fill="#3BC5F7">
                            <path d="M0.229,14 L4.929,14 C5.462,9.867 6.929,7.033 9.329,5.5 C9.862,5.233 10.462,5.033 11.129,4.9 C11.448,3.261 11.448,1.878 11.129,0.75 C8.862,1.017 6.862,1.717 5.129,2.85 C2.396,4.684 0.729,7.1 0.129,10.1 C-0.071,11.7 -0.038,13 0.229,14" id="Shape"></path>
                        </g>
                        <g id="Scene_1_x5F_21.0" transform="translate(0.000000, 34.000000)" fill="#3BC5F7">
                            <path d="M14.229,1.65 C13.029,2.65 12.196,3.817 11.729,5.15 C11.196,6.817 11.029,8.834 11.229,11.2 L11.329,13.6 C11.462,14.467 11.429,15.1 11.229,15.5 C10.896,15.967 10.196,16.433 9.129,16.9 L7.529,17.3 C5.862,18.1 4.662,19.5 3.929,21.5 C3.362,23.167 3.196,24.95 3.429,26.85 L3.929,28.45 C4.129,29.183 4.196,29.85 4.129,30.45 C3.929,31.316 3.179,32.883 1.879,35.15 C0.146,37.983 0.012,41.367 1.479,45.299 C1.612,45.566 1.779,45.632 1.979,45.499 C2.179,45.499 2.279,45.366 2.279,45.099 L2.279,45 C2.279,43.533 2.595,41.934 3.229,40.2 C4.296,36.967 6.262,34.383 9.129,32.45 C10.596,31.383 13.063,30.217 16.529,28.95 C17.162,28.817 17.546,29.016 17.679,29.55 L17.679,29.65 C18.146,31.517 18.979,32.65 20.179,33.05 L20.679,33.151 C21.212,33.284 21.479,33.618 21.479,34.151 L21.679,35.35 L21.779,35.651 C21.845,35.784 21.812,35.883 21.679,35.951 C21.612,36.151 21.512,36.218 21.379,36.151 C19.112,35.684 17.029,35.55 15.129,35.751 C14.625,37.134 14.625,38.518 15.129,39.901 C16.362,39.501 18.012,39.368 20.079,39.501 C20.946,39.567 21.779,39.701 22.579,39.901 C23.709,38.816 24.509,37.599 24.979,36.251 L24.879,34.351 C24.879,33.751 25.012,33.218 25.279,32.751 L25.679,32.151 C25.879,32.017 25.979,32.017 25.979,32.151 L25.979,32.85 C25.979,33.85 26.046,34.784 26.179,35.651 C27.79,35.366 29.274,34.631 30.629,33.451 C30.462,32.85 30.346,32.151 30.279,31.35 C30.146,30.75 30.179,30.151 30.379,29.55 C30.879,27.017 32.029,24.834 33.829,23 C32.871,22.172 31.655,21.539 30.179,21.1 C29.179,22.367 28.412,23.517 27.879,24.55 C27.746,24.95 27.579,24.917 27.379,24.45 L27.379,23.5 C27.379,22.5 27.646,21.7 28.179,21.1 L28.679,20.3 C28.679,20.1 28.579,19.933 28.379,19.8 C27.712,19.334 27.012,19.2 26.279,19.4 C25.212,19.533 24.345,20.3 23.679,21.7 L23.279,22.4 C23.079,23 22.679,23.233 22.079,23.1 C21.146,22.9 20.379,23.033 19.779,23.5 C19.379,23.767 18.979,24.217 18.579,24.85 C18.246,25.383 17.879,25.416 17.479,24.95 C15.846,22.783 14.896,19.467 14.629,15 L14.629,12.8 C14.629,9.234 14.962,6.283 15.629,3.95 C16.296,2.283 16.629,1.416 16.629,1.35 L16.729,1.15 L16.629,0.85 C16.496,0.717 16.329,0.683 16.129,0.75 C15.796,0.75 15.163,1.05 14.229,1.65" id="Shape"></path>
                        </g>
                        <g id="Scene_1_x5F_20.0" transform="translate(18.000000, 67.000000)" fill="#3BC5F7">
                            <path d="M20.029,8 C19.495,6.4 18.362,5.467 16.629,5.2 C15.563,5.066 14.862,4.849 14.529,4.55 C14.062,4.084 13.562,3.05 13.029,1.45 C12.896,1.183 12.762,0.849 12.629,0.45 C10.776,0.691 9.293,1.424 8.179,2.65 C8.245,3.049 8.312,3.416 8.379,3.75 C8.446,3.95 8.413,4.117 8.279,4.25 C8.079,4.45 7.879,4.45 7.679,4.25 L7.079,4.15 C6.879,4.084 6.846,3.783 6.979,3.25 C5.639,4.467 4.838,5.684 4.579,6.9 C6.646,7.233 8.479,7.834 10.079,8.7 L10.479,9 C10.546,9.267 10.546,9.434 10.479,9.5 C10.012,10.033 9.746,10.5 9.679,10.9 C9.479,11.566 9.079,11.933 8.479,12 C4.679,12.666 2.079,13.967 0.679,15.9 L0.579,16 L9.479,16 L10.379,15.9 L10.679,16 L15.829,16 L13.729,13.3 C13.529,13.1 13.429,12.867 13.429,12.6 L13.429,12.5 C13.429,12.367 13.562,12.233 13.829,12.1 L14.529,12.201 L15.429,12.501 C17.429,12.835 18.862,12.401 19.729,11.201 C20.196,10.734 20.429,10.1 20.429,9.301 C20.429,8.834 20.296,8.4 20.029,8" id="Shape"></path>
                        </g>
                        <g id="Scene_1_x5F_19.0" transform="translate(38.000000, 69.000000)" fill="#3BC5F7">
                            <path d="M13.879,4.6 C13.746,4.934 13.679,5.434 13.679,6.1 L13.779,7.1 C13.912,7.368 13.779,7.5 13.379,7.5 L12.779,7.1 C12.179,6.967 11.879,6.6 11.879,6 C11.746,4.6 11.179,3.566 10.179,2.9 C9.912,2.799 9.212,2.45 8.079,1.849 C7.746,1.783 7.379,1.583 6.979,1.249 L6.129,0.249 C6.063,0.116 5.929,0.049 5.729,0.049 C5.529,0.183 5.429,0.316 5.429,0.449 L5.329,1.149 L4.529,2.848 L4.329,2.998 C3.529,4.332 3.129,5.365 3.129,6.098 L3.129,6.399 C3.262,6.798 3.029,7.165 2.429,7.499 L1.929,7.699 C1.196,8.232 0.829,8.932 0.829,9.799 L1.029,10.799 C1.362,11.333 1.729,11.532 2.129,11.4 L2.229,11.4 C2.962,11.132 3.762,11.266 4.629,11.799 C5.096,12.199 5.563,12.833 6.029,13.699 L6.129,13.999 L10.379,13.999 L10.379,13.799 L10.479,13.199 C10.812,12.665 11.246,12.265 11.779,11.999 C12.112,11.732 12.779,11.866 13.779,12.399 L14.979,12.699 C15.379,12.699 15.646,12.532 15.779,12.199 L15.979,11.098 C15.979,10.498 15.812,9.832 15.479,9.098 C15.279,8.765 15.346,8.664 15.679,8.798 C16.412,8.998 17.179,9.065 17.979,8.998 C18.646,8.932 19.246,8.765 19.779,8.498 C18.383,6.686 16.483,5.254 14.079,4.198 C14.012,4.334 13.946,4.467 13.879,4.6" id="Shape"></path>
                        </g>
                        <g id="Scene_1_x5F_18.0" transform="translate(49.000000, 58.000000)" fill="#3BC5F7">
                            <path d="M22.579,6.75 L22.579,6.65 C22.579,5.383 21.729,4.516 20.029,4.049 L18.129,3.749 C15.996,3.416 14.396,2.982 13.329,2.449 L12.529,1.849 C12.129,1.582 11.729,1.082 11.329,0.349 L11.229,0.249 C9.45,0.284 8.066,0.518 7.079,0.949 L7.679,1.849 C7.879,2.249 7.846,2.582 7.579,2.849 C7.179,3.116 6.846,3.116 6.579,2.849 L5.679,1.449 C3.663,1.627 2.03,2.061 0.779,2.749 C0.912,3.016 1.079,3.316 1.279,3.649 L1.579,3.949 C1.912,4.349 2.012,4.849 1.879,5.449 C1.679,5.915 1.579,6.348 1.579,6.749 L1.679,7.249 C1.679,8.183 2.146,9.049 3.079,9.849 C4.212,10.716 5.346,10.915 6.479,10.45 C7.212,10.183 7.846,9.617 8.379,8.75 C8.446,8.617 8.629,8.55 8.929,8.55 C9.129,8.684 9.229,8.817 9.229,8.95 L9.129,10.25 C9.129,10.85 8.946,11.416 8.579,11.95 C8.179,12.75 7.379,13.183 6.179,13.25 C4.779,13.517 3.745,14.166 3.079,15.2 C4.559,16.813 6.459,18.246 8.779,19.5 C10.479,18.566 11.829,16.65 12.829,13.75 C13.429,12.15 13.729,10.584 13.729,9.05 C13.729,8.45 13.562,7.35 13.229,5.75 L13.229,5.65 L13.329,5.55 C13.729,5.417 14.129,5.417 14.529,5.55 C14.929,5.55 15.229,5.75 15.429,6.151 L15.729,6.651 C16.329,7.85 16.629,8.684 16.629,9.151 L16.629,9.35 L15.629,11.651 L15.629,11.85 L15.929,12.75 L16.229,12.85 C16.562,13.25 17.296,13.35 18.429,13.151 C20.562,12.751 21.762,11.784 22.029,10.251 L22.329,9.351 L22.129,9.051 C22.129,8.451 22.262,7.884 22.529,7.351 L22.579,6.75" id="Shape"></path>
                        </g>
                        <g id="Scene_1_x5F_17.0" transform="translate(17.000000, 20.000000)" fill="#3BC5F7">
                            <path d="M0.379,15.85 C0.379,19.717 1.512,23.233 3.779,26.4 C6.446,29.867 9.796,32.133 13.829,33.2 C13.962,33.266 14.062,33.4 14.129,33.6 C14.196,33.8 14.163,33.933 14.029,34 C13.662,34.4 13.379,34.767 13.179,35.1 C14.136,36.057 15.353,36.691 16.829,37 C17.429,36.333 18.096,35.733 18.829,35.2 C20.229,34.333 21.362,33.766 22.229,33.5 L24.429,32.8 C27.729,32.2 30.946,32.767 34.079,34.5 C34.546,34.767 34.512,35.033 33.979,35.3 L32.979,36.7 C32.579,37.666 32.379,38.483 32.379,39.15 C32.379,39.617 32.512,40.15 32.779,40.75 C34.545,40.516 36.178,40.083 37.679,39.45 L37.479,39.15 C37.279,38.75 37.346,38.417 37.679,38.15 C38.012,37.983 38.346,38.017 38.679,38.25 L39.079,38.95 C40.331,38.977 41.715,38.744 43.229,38.25 L41.829,36 C39.729,33.067 36.946,30.933 33.479,29.6 C33.279,29.6 33.312,29.5 33.579,29.3 C36.312,29.367 38.046,30.234 38.779,31.9 C39.112,32.5 39.579,32.8 40.179,32.8 C40.679,32.6 40.929,32.033 40.929,31.1 L40.929,30.3 C40.696,29.3 40.312,28.5 39.779,27.9 C39.512,27.433 39.546,26.967 39.879,26.5 C40.712,25.5 41.129,24.55 41.129,23.65 C41.129,23.183 41.029,22.75 40.829,22.35 C40.062,21.017 38.712,20.25 36.779,20.05 C34.845,19.717 33.079,20.017 31.479,20.95 C31.146,21.15 30.679,21.55 30.079,22.15 L29.979,22.25 C28.979,23.183 28.079,24.167 27.279,25.2 L25.729,27.3 C25.396,27.7 24.962,28.067 24.429,28.4 L23.229,28.9 L21.029,29.5 C18.362,29.967 15.812,29.7 13.379,28.7 C10.846,27.766 8.779,26.217 7.179,24.05 C4.846,20.783 4.012,17.317 4.679,13.65 C5.279,9.817 7.146,6.767 10.279,4.5 C11.412,3.633 12.595,3 13.829,2.6 C12.639,1.476 11.188,0.676 9.479,0.2 C8.879,0.467 8.346,0.8 7.879,1.2 C3.813,4.133 1.379,8.05 0.579,12.95 L0.379,15.85" id="Shape"></path>
                        </g>
                        <g id="Scene_1_x5F_16.0" transform="translate(26.000000, 27.000000)" fill="#3BC5F7">
                            <path d="M0.679,8.65 C0.479,9.117 0.379,9.584 0.379,10.05 L0.579,11.25 C1.312,13.25 2.612,13.883 4.479,13.15 L5.029,12.95 C5.495,12.817 5.729,12.983 5.729,13.45 L5.629,14.05 C5.629,16.117 6.696,17.15 8.829,17.15 C10.896,17.15 11.929,16.117 11.929,14.05 L11.929,13.45 C11.929,12.983 12.162,12.817 12.629,12.95 L13.129,13.15 C15.129,13.883 16.496,13.25 17.229,11.25 L17.329,10.05 L17.129,8.65 C16.663,7.983 15.996,7.483 15.129,7.15 L14.629,7.05 C14.096,6.917 13.996,6.617 14.329,6.15 L14.729,5.75 C15.129,5.217 15.329,4.617 15.329,3.95 C15.329,2.916 14.862,2.1 13.929,1.5 C12.262,0.3 10.796,0.5 9.529,2.1 L9.229,2.7 C9.163,2.833 9.029,2.9 8.829,2.9 C8.696,2.9 8.529,2.834 8.329,2.7 L8.129,2.1 C6.929,0.5 5.479,0.3 3.779,1.5 C2.845,2.167 2.379,2.983 2.379,3.95 C2.379,4.483 2.612,5.083 3.079,5.75 L3.379,6.15 C3.712,6.617 3.646,6.917 3.179,7.05 L2.679,7.15 C1.746,7.483 1.079,7.983 0.679,8.65" id="Shape"></path>
                        </g>
                        <g id="Scene_1_x5F_15.0" transform="translate(26.000000, 13.000000)" fill="#3BC5F7">
                            <path d="M13.829,0.45 C12.962,0.85 11.796,1.117 10.329,1.25 C7.796,1.65 5.446,2.933 3.279,5.1 L2.179,6.2 C1.579,6.467 1.012,6.8 0.479,7.2 C1.026,8.387 2.476,9.187 4.829,9.6 C6.829,8.867 8.962,8.633 11.229,8.9 C14.829,9.367 17.779,10.967 20.079,13.7 C20.546,14.3 20.579,14.8 20.179,15.2 C19.245,16.467 18.329,17 17.429,16.8 C16.829,16.734 16.429,16.9 16.229,17.3 C16.096,17.8 16.462,18.217 17.329,18.55 C17.462,18.683 17.696,18.783 18.029,18.85 C18.329,18.916 18.845,19.183 19.579,19.65 C20.046,19.983 20.679,20.117 21.479,20.05 C22.612,19.984 23.479,19.584 24.079,18.85 C24.679,18.25 25.012,17.533 25.079,16.7 L25.279,15 L25.079,13.8 L23.879,12 C21.679,9.133 18.929,7.1 15.629,5.9 C12.362,4.667 9.063,4.4 5.729,5.1 C5.663,5.1 5.663,5.033 5.729,4.9 C8.729,3.8 11.629,3.517 14.429,4.05 C14.607,3.04 14.407,1.839 13.829,0.45" id="Shape"></path>
                        </g>
                        <g id="Scene_1_x5F_14.0" transform="translate(39.000000, 1.000000)" fill="#3BC5F7">
                            <path d="M4.229,9.25 L3.029,10.65 C2.495,11.317 1.929,11.817 1.329,12.15 C1.129,12.217 0.962,12.317 0.829,12.45 C0.533,13.65 0.733,14.85 1.429,16.05 C1.896,16.117 2.396,16.234 2.929,16.4 C6.162,17.467 8.879,19.867 11.079,23.6 C11.212,23.933 11.412,24.033 11.679,23.9 C11.879,23.834 11.979,23.667 11.979,23.4 L11.979,23.3 C11.712,22.3 11.579,21.067 11.579,19.6 C11.579,15.767 12.779,12.583 15.179,10.05 C17.679,7.25 20.029,5.383 22.229,4.45 C22.496,4.45 22.629,4.516 22.629,4.65 L22.729,4.75 L22.729,4.95 C20.596,5.75 18.779,7.016 17.279,8.75 C15.012,11.483 13.745,15.1 13.479,19.6 L13.379,21.3 C13.379,25.3 14.246,28.717 15.979,31.55 C17.312,33.55 19.362,35.617 22.129,37.75 L22.929,38.15 C23.129,38.417 23.196,38.65 23.129,38.85 L22.829,40.15 L22.829,40.75 C22.829,41.883 23.162,42.683 23.829,43.15 C24.562,43.783 25.496,44.067 26.629,44 C26.778,40.95 26.612,37.9 26.129,34.85 C25.729,34.983 25.329,34.883 24.929,34.55 C22.329,32.75 20.529,31.067 19.529,29.5 C18.229,27.367 17.579,24.667 17.579,21.4 L17.579,19.8 C17.912,14.5 19.829,10.95 23.329,9.15 C23.796,8.883 24.129,8.983 24.329,9.45 C26.3,6.652 27.9,3.668 29.129,0.5 C28.663,0.633 28.262,0.633 27.929,0.5 C27.262,0.233 26.696,0.1 26.229,0.1 C25.096,0.233 24.163,0.7 23.429,1.5 L23.029,2.2 C22.762,2.766 22.329,3.083 21.729,3.15 C20.663,3.283 19.579,3.55 18.479,3.95 C16.879,4.683 15.712,5.416 14.979,6.15 L14.079,7.15 L12.879,8.05 C12.079,8.183 11.413,8.183 10.879,8.05 L10.179,7.65 C8.046,7.117 6.062,7.65 4.229,9.25" id="Shape"></path>
                        </g>
                        <g id="Scene_1_x5F_13.0" transform="translate(58.000000, 0.000000)" fill="#3BC5F7">
                            <path d="M17.379,2.9 C17.313,2.1 16.779,1.433 15.779,0.9 C13.879,0.033 12.229,0.067 10.829,1 L10.329,1.2 C10.262,1.266 10.196,1.367 10.129,1.5 C7.988,4.483 6.389,7.467 5.329,10.45 L5.329,10.65 L5.729,11.45 C6.262,12.05 6.862,12.483 7.529,12.75 C8.262,12.883 8.562,13.25 8.429,13.85 L8.429,14.15 C8.229,14.617 7.995,14.917 7.729,15.05 L7.229,15.35 C5.896,15.95 4.962,16.183 4.429,16.05 C4.229,16.05 3.962,15.95 3.629,15.75 C3.163,15.483 2.896,15.35 2.829,15.35 L2.229,15.05 L1.929,15.05 L0.829,15.45 C0.562,15.983 0.462,16.766 0.529,17.8 C0.929,19.8 1.896,21.033 3.429,21.5 C3.962,21.633 4.396,21.667 4.729,21.6 C5.062,21.6 5.596,21.733 6.329,22 L6.829,22.1 L7.329,22.1 C7.862,22.1 8.162,22.367 8.229,22.9 C8.762,25.7 10.096,28.417 12.229,31.05 C13.612,30.929 14.996,30.479 16.379,29.7 C15.313,28.433 14.379,27.133 13.579,25.8 C13.479,25.467 13.646,25.3 14.079,25.3 C14.746,25.3 15.212,25.133 15.479,24.8 C15.746,24.533 16.012,24.334 16.279,24.2 C16.2,23.032 15.6,21.799 14.479,20.5 C13.879,20.767 13.329,21.167 12.829,21.7 C12.696,21.833 12.562,21.867 12.429,21.8 C12.296,21.734 12.229,21.633 12.229,21.5 L12.129,20.3 C12.129,17.2 13.346,14.65 15.779,12.65 C17.296,10.143 18.362,7.443 18.979,4.55 C17.712,5.15 16.446,5.917 15.179,6.85 C14.446,7.25 13.912,7.517 13.579,7.65 C13.079,7.65 12.729,7.517 12.529,7.25 L12.529,6.95 C12.662,6.617 12.962,6.317 13.429,6.05 C13.495,6.05 14.046,5.95 15.079,5.75 L16.079,5.75 C16.279,5.75 16.512,5.617 16.779,5.35 C17.446,4.683 17.646,3.867 17.379,2.9" id="Shape"></path>
                        </g>
                        <g id="Scene_1_x5F_12.0" transform="translate(64.000000, 3.000000)" fill="#3BC5F7">
                            <path d="M26.129,5.05 C25.829,3.5 25.196,1.95 24.23,0.4 C23.697,0.267 23.164,0.2 22.629,0.2 C20.796,-6.68909372e-15 19.013,0.033 17.279,0.3 C16.958,3.317 16.958,6.334 17.279,9.35 C17.612,9.483 18.012,9.617 18.479,9.75 C20.279,10.417 21.178,11.817 21.178,13.95 C21.178,14.516 21.362,15 21.729,15.4 C22.128,15.8 22.628,16 23.229,16 C24.362,16 25.029,15.467 25.229,14.4 C25.362,14.233 25.428,14.167 25.428,14.2 C25.828,15.333 26.029,16.367 26.029,17.3 C26.029,20.367 24.729,23.334 22.129,26.2 C21.995,26.333 21.829,26.367 21.629,26.3 C21.495,26.234 21.429,26.133 21.429,26 C21.296,23.067 20.313,20.767 18.48,19.1 C17.102,19.875 16.036,20.775 15.28,21.8 L15.38,21.9 C16.78,22.967 17.481,24.5 17.481,26.5 C17.481,28.067 17.114,29.517 16.38,30.85 C16.314,31.05 16.181,31.183 15.98,31.25 C15.648,31.25 15.414,31.183 15.281,31.05 L13.881,29.75 C12.548,28.75 11.381,27.733 10.381,26.7 C8.668,26.82 7.284,27.27 6.231,28.05 C7.131,29.25 8.281,30.45 9.681,31.65 C9.747,31.717 9.781,31.783 9.781,31.85 C9.714,31.916 9.614,31.95 9.481,31.95 C7.248,31.283 5.398,31.15 3.931,31.55 C3.131,31.683 2.264,32.017 1.331,32.55 C1.264,32.617 1.198,32.717 1.131,32.85 C0.651,35.835 0.818,38.885 1.631,42 C2.165,41.933 2.665,41.833 3.131,41.7 L5.431,40.75 L5.531,40.75 L5.631,40.85 C5.364,41.683 5.231,42.4 5.231,43 L5.431,44.4 C5.631,45.334 6.198,46.033 7.131,46.5 C7.764,46.833 8.415,46.967 9.081,46.9 C9.281,46.9 9.381,46.834 9.381,46.7 L9.481,46.5 L9.481,46.4 L9.181,44.6 L9.181,44 C9.181,43.467 9.514,43.333 10.181,43.6 C12.181,45.2 13.914,46.833 15.381,48.5 C16.477,47.266 17.177,45.966 17.482,44.6 C16.014,43.133 14.415,41.75 12.682,40.45 C12.215,40.05 12.182,39.617 12.582,39.15 C12.982,38.683 13.449,38.35 13.982,38.15 C14.449,37.883 15.015,37.817 15.683,37.95 C16.415,38.217 17.149,38.583 17.882,39.05 C19.318,38.237 20.318,37.237 20.882,36.05 C20.483,35.783 20.082,35.55 19.682,35.35 C19.149,35.017 19.116,34.65 19.582,34.25 L21.182,32.65 C27.149,28.017 30.132,22.9 30.132,17.3 C30.132,14.467 29.332,11.917 27.733,9.65 C26.2,7.317 24.167,5.584 21.632,4.45 C21.566,4.383 21.532,4.317 21.532,4.25 C21.532,4.183 21.565,4.15 21.632,4.15 L22.233,4.15 C23.562,4.283 24.862,4.583 26.129,5.05" id="Shape"></path>
                        </g>
                        <g id="Scene_1_x5F_11.0" transform="translate(72.000000, 3.000000)" fill="#3BC5F7">
                            <path d="M4.979,1.55 C3.287,3.812 2.22,6.512 1.779,9.65 C1.912,9.584 2.012,9.584 2.079,9.65 C2.146,9.783 2.146,9.883 2.079,9.95 C1.879,10.75 1.779,11.55 1.779,12.35 L1.779,12.65 C1.779,13.45 2.012,14.467 2.479,15.7 C2.812,16.233 2.646,16.567 1.979,16.7 C1.446,16.967 0.946,17.233 0.479,17.5 C0.236,19.057 0.836,20.291 2.279,21.2 C3.412,20.4 4.612,20.3 5.879,20.9 C6.413,21.1 6.879,21.4 7.279,21.8 C8.802,21.357 9.869,20.457 10.479,19.1 C10.345,18.967 10.178,18.833 9.979,18.7 C7.312,16.433 5.912,14.35 5.779,12.45 L5.779,12.25 C5.779,11.517 6.079,10.85 6.679,10.25 L6.779,10.25 L6.779,10.15 C7.379,9.483 8.213,9.217 9.279,9.35 C9.911,6.522 9.911,3.506 9.279,0.3 C7.812,0.533 6.379,0.95 4.979,1.55" id="Shape"></path>
                        </g>
                        <g id="Scene_1_x5F_10.0" transform="translate(88.000000, 3.000000)" fill="#3BC5F7">
                            <path d="M0.229,0.4 C0.423,1.95 1.057,3.5 2.128,5.05 C4.595,5.917 6.695,7.417 8.428,9.55 C9.029,10.217 9.562,10.95 10.029,11.75 C11.012,11.21 11.995,10.21 12.979,8.75 C12.512,8.083 12.045,7.45 11.579,6.85 L11.679,6.85 C12.212,7.383 12.712,7.95 13.179,8.55 C14.113,8.113 15.046,7.213 15.98,5.85 C15.246,5.317 14.48,4.683 13.679,3.95 C11.78,2.217 9.03,1.416 5.429,1.55 C4.829,1.55 4.23,1.45 3.629,1.25 C2.429,0.783 1.296,0.5 0.229,0.4" id="Shape"></path>
                        </g>
                        <g id="Scene_1_x5F_9.0" transform="translate(96.000000, 8.000000)" fill="#3BC5F7">
                            <path d="M7.979,0.85 C6.217,1.75 5.285,2.65 5.178,3.55 C5.912,4.484 6.512,5.484 6.979,6.55 C7.645,7.817 7.979,9.467 7.979,11.5 L7.979,12.1 C7.979,12.166 7.946,12.166 7.878,12.1 C7.611,9.067 6.645,6.283 4.979,3.75 C3.864,4.29 2.881,5.29 2.029,6.75 C3.262,8.917 3.879,11.267 3.879,13.8 L3.779,15.2 C3.579,18 2.462,20.617 0.428,23.05 L0.328,23.15 C0.49,24.719 1.257,25.986 2.628,26.95 L2.628,26.85 L2.729,26.65 C7.961,21.75 14.428,19.334 22.128,19.4 C22.693,18 22.926,16.6 22.828,15.2 C18.195,15.133 13.678,15.967 9.278,17.7 C9.211,17.7 9.177,17.666 9.177,17.6 C12.844,15.133 17.427,14.267 22.927,15 C23.47,13.958 23.703,12.791 23.627,11.5 L23.427,11.4 C22.761,10.933 22.427,10.183 22.427,9.15 L22.228,7.55 C21.695,5.817 20.528,4.417 18.728,3.35 C17.228,2.483 15.511,1.983 13.578,1.85 L11.778,2.05 C10.912,2.183 10.278,2.117 9.878,1.85 C9.346,1.65 8.712,1.317 7.979,0.85" id="Shape"></path>
                        </g>
                        <g id="Scene_1_x5F_8.0" transform="translate(69.000000, 31.000000)" fill="#3BC5F7">
                            <path d="M29.629,3.95 C29.317,2.359 28.55,1.092 27.329,0.15 L26.129,1.45 C23.329,4.383 21.296,7.717 20.029,11.45 C19.962,11.583 19.862,11.683 19.729,11.75 C19.529,11.75 19.362,11.683 19.229,11.55 C18.628,10.55 17.862,9.65 16.928,8.85 C16.595,8.65 16.244,8.383 15.878,8.05 C14.25,9.05 13.25,10.05 12.878,11.05 C13.345,11.25 13.778,11.517 14.178,11.85 C15.545,13.083 16.662,14.6 17.529,16.4 C18.262,17.933 18.663,19.267 18.729,20.4 L18.729,20.8 C18.729,21.734 18.595,22.667 18.329,23.6 C18.062,23.933 17.829,23.933 17.629,23.6 C16.396,21.2 14.679,18.867 12.48,16.6 C11.16,17.776 10.459,19.076 10.379,20.5 C12.379,22.633 13.846,24.8 14.779,27 C15.046,27.433 15.178,27.95 15.178,28.55 C15.178,29.35 14.878,30.117 14.279,30.85 L13.879,31.25 L12.48,32.35 C6.147,37.017 2.03,43.566 0.129,52 L4.279,52 C6.079,44.733 9.712,39.25 15.178,35.55 L15.979,34.95 C16.112,34.816 16.262,34.816 16.428,34.95 C16.628,35.016 16.729,35.183 16.729,35.45 L16.729,36.55 C16.729,38.484 16.595,40.2 16.329,41.7 C15.829,45.233 14.712,48.666 12.979,52 L17.529,52 C18.928,48.934 19.895,45.7 20.428,42.3 C20.762,40.6 20.928,38.75 20.928,36.75 L20.828,34.75 C20.828,33.283 21.428,32.45 22.628,32.25 C24.295,31.917 26.229,31.917 28.428,32.25 C28.562,32.25 28.729,32.283 28.928,32.35 C29.715,31.139 30.016,29.805 29.828,28.35 C29.628,28.283 29.428,28.25 29.228,28.25 C26.695,27.717 24.028,27.75 21.228,28.35 L21.028,28.25 L21.028,27.95 C21.361,27.317 21.894,26.867 22.628,26.6 C23.828,26.2 24.895,25.666 25.828,25 L26.128,24.9 C27.795,23.834 29.111,23.167 30.078,22.9 C32.878,22.3 35.378,22.334 37.578,23 C39.041,22.131 40.041,21.065 40.578,19.8 C38.311,18.667 35.845,18.2 33.178,18.4 C32.645,18.4 32.279,18.2 32.078,17.8 L31.978,17.7 C31.912,17.567 31.945,17 32.078,16 L32.578,14.1 C32.644,13.833 32.744,13.55 32.878,13.25 C31.461,12.611 30.045,12.611 28.628,13.25 C28.028,15.483 27.461,17.2 26.928,18.4 C26.128,19.733 24.895,20.867 23.229,21.8 L22.928,21.8 L22.828,21.5 L22.828,19 C23.028,13.767 24.861,9.15 28.328,5.15 L29.629,3.95" id="Shape"></path>
                        </g>
                        <g id="Scene_1_x5F_7.0" transform="translate(97.000000, 59.000000)" fill="#3BC5F7">
                            <path d="M1.829,0.35 C0.591,1.683 0.291,3.017 0.929,4.35 C3.563,4.95 5.913,6.084 7.98,7.75 C10.914,10.15 12.447,13.166 12.58,16.8 L12.58,17.3 C12.646,17.5 12.646,17.666 12.58,17.8 C12.18,18.334 11.746,18.734 11.28,19 C10.88,19.133 10.179,19.033 9.179,18.7 C8.046,18.166 7.379,18.233 7.179,18.9 L6.98,19.9 L7.379,21.599 L7.579,21.9 L9.479,23.599 L10.178,23.799 L10.479,23.999 L20.029,23.999 L20.428,23.599 L21.128,23.2 C21.795,22.867 22.128,22.2 22.128,21.2 C22.128,20.666 22.028,20.334 21.828,20.2 C21.628,19.533 21.328,19.3 20.928,19.5 L20.828,19.7 C20.095,19.9 19.295,19.7 18.428,19.099 C17.762,18.766 17.262,18.165 16.928,17.299 C16.662,16.9 16.529,16.333 16.529,15.599 C15.995,11.165 13.946,7.45 10.379,4.45 C7.712,2.383 4.862,1.017 1.829,0.35" id="Shape"></path>
                        </g>
                        <g id="Scene_1_x5F_6.0" transform="translate(106.000000, 50.000000)" fill="#3BC5F7">
                            <path d="M3.579,0.8 C1.956,1.867 0.956,2.933 0.579,4 C1.979,4.533 3.312,5.333 4.579,6.4 C7.212,8.7 8.529,11.45 8.529,14.65 C8.529,15.183 8.329,15.549 7.928,15.75 C7.662,15.95 7.328,15.983 6.928,15.85 C6.562,15.717 6.244,15.75 5.979,15.951 C5.645,16.085 5.479,16.35 5.479,16.751 L5.479,17.051 C5.479,18.051 5.862,18.751 6.628,19.152 L6.928,19.252 L7.128,19.452 L7.028,20.152 C7.028,20.551 7.162,20.985 7.427,21.452 C7.761,21.952 8.361,22.202 9.228,22.202 C11.028,22.135 12.195,21.252 12.728,19.552 L12.927,18.252 L12.528,14.852 L12.528,14.65 C12.528,10.283 10.761,6.5 7.228,3.299 C6.062,2.167 4.846,1.333 3.579,0.8" id="Shape"></path>
                        </g>
                        <g id="Scene_1_x5F_5.0" transform="translate(97.000000, 29.000000)" fill="#3BC5F7">
                            <path d="M0.629,15.25 C1.855,15.569 3.271,15.569 4.879,15.25 C5.346,13.383 5.98,11.817 6.779,10.55 C9.312,6.283 12.895,4.35 17.529,4.75 C18.462,4.883 19.229,5.517 19.829,6.65 C20.362,8.117 21.429,8.917 23.029,9.05 C24.229,9.317 25.196,8.984 25.928,8.05 C26.662,6.85 26.696,5.45 26.029,3.85 C24.895,1.75 22.229,0.533 18.029,0.2 C16.495,0.2 15.012,0.433 13.579,0.9 C9.446,1.6 5.979,4.084 3.179,8.35 C2.28,10.017 1.429,12.283 0.629,15.15 L0.629,15.25" id="Shape"></path>
                        </g>
                        <g id="Scene_1_x5F_4.0" transform="translate(117.000000, 19.000000)" fill="#3BC5F7">
                            <path d="M17.379,13.45 C18.585,13.424 20.118,12.874 21.98,11.8 C20.447,10.533 18.78,9.4 16.98,8.4 C16.513,8.067 16.146,7.6 15.879,7 C15.279,5.067 14.112,3.633 12.379,2.7 C11.046,1.967 9.129,1.467 6.629,1.2 L4.23,0.9 C3.363,0.7 2.83,0.567 2.629,0.5 C1.952,1.35 1.72,2.517 1.929,4 L2.23,4 L5.33,4.4 L5.33,4.6 L1.83,4.2 C0.998,5.6 0.765,7 1.13,8.4 L1.83,8.4 C7.729,8.533 12.913,10.217 17.379,13.45" id="Shape"></path>
                        </g>
                        <g id="Scene_1_x5F_3.0" transform="translate(121.000000, 36.000000)" fill="#3BC5F7">
                            <path d="M10.979,3.25 C10.711,3.583 10.413,3.517 10.079,3.05 L9.979,2.55 C9.112,0.75 7.711,0.25 5.779,1.05 C4.546,1.584 3.928,2.45 3.928,3.65 C3.928,4.117 4.062,4.617 4.328,5.15 L4.628,5.65 C4.762,6.183 4.628,6.45 4.229,6.45 C3.961,6.383 3.729,6.383 3.529,6.45 C1.529,6.583 0.595,7.7 0.729,9.8 C0.928,11.867 2.095,12.8 4.229,12.6 L4.729,12.5 C5.362,12.5 5.512,12.7 5.178,13.1 L5.029,14.6 C5.029,15 5.178,15.5 5.479,16.1 C5.946,16.9 6.612,17.333 7.479,17.4 C9.612,17.8 10.878,17 11.279,15 L11.379,14.3 C11.379,14.167 11.48,14.067 11.679,14 C11.813,13.933 11.913,13.933 11.98,14 L12.58,14.3 L12.58,14.5 L12.78,14.5 C13.513,14.9 14.246,15 14.98,14.8 C15.78,14.667 16.414,14.167 16.879,13.3 C17.212,12.834 17.379,12.234 17.379,11.5 C17.379,10.433 16.846,9.6 15.779,9 L15.279,8.7 C15.079,8.633 14.979,8.483 14.979,8.25 C14.979,8.117 15.079,7.983 15.279,7.85 L15.678,7.55 C16.412,6.817 16.779,6.05 16.779,5.25 C16.779,4.583 16.479,3.85 15.879,3.05 C14.413,1.517 12.913,1.45 11.379,2.85 L10.979,3.25" id="Shape"></path>
                        </g>
                        <g id="Scene_1_x5F_2.0" transform="translate(118.000000, 51.000000)" fill="#3BC5F7">
                            <path d="M0.429,10.05 C0.629,11.383 1.129,12.683 1.929,13.95 L2.03,13.95 C2.496,14.95 3.13,15.816 3.929,16.55 C4.329,16.883 4.462,17.416 4.329,18.151 L4.229,19.35 C4.229,20.984 4.729,22.666 5.729,24.401 C7.045,24.292 8.362,23.858 9.678,23.1 C8.946,21.901 8.545,20.85 8.479,19.951 C8.279,19.417 8.545,19.151 9.279,19.151 C10.546,19.284 11.745,19.184 12.879,18.85 C13.376,17.383 13.376,15.916 12.879,14.451 C12.745,14.517 12.579,14.585 12.379,14.651 C11.046,15.184 9.712,15.217 8.379,14.751 C7.013,14.151 6.063,13.218 5.529,11.951 C5.062,10.551 5.062,9.284 5.529,8.151 L5.529,7.851 L5.629,7.751 L6.429,7.151 C7.563,6.318 8.129,5.234 8.129,3.901 L8.129,3.501 C7.995,2.301 7.462,1.468 6.529,1.001 C5.196,0.401 3.862,0.601 2.529,1.601 C0.995,2.868 0.229,4.784 0.229,7.351 L0.429,10.05" id="Shape"></path>
                        </g>
                        <g id="Scene_1_x5F_1.0" transform="translate(119.000000, 30.000000)" fill="#3BC5F7">
                            <path d="M35.279,19.5 C35.279,18.167 34.595,16.933 33.229,15.8 C32.362,15.133 31.529,14.9 30.729,15.1 C30.196,15.233 29.862,15.4 29.729,15.6 C29.262,15.867 28.961,15.767 28.829,15.3 C27.962,11.6 26.296,8.15 23.829,4.95 C22.696,3.416 21.413,2.033 19.979,0.8 C17.875,1.065 16.341,1.615 15.378,2.45 C16.244,3.117 17.078,3.817 17.878,4.55 C22.845,9.217 25.328,14.734 25.328,21.1 L25.328,21.4 C25.128,22.933 24.728,24.1 24.128,24.9 C23.328,25.9 22.111,27.017 20.479,28.25 L19.079,29.45 C18.145,30.183 17.645,30.883 17.579,31.55 C17.579,31.683 17.513,31.783 17.379,31.85 C17.179,31.916 17.046,31.916 16.98,31.85 L16.78,31.75 C16.313,31.483 15.78,31.483 15.179,31.75 C14.646,31.95 14.28,32.317 14.079,32.85 C13.612,33.916 12.879,34.783 11.879,35.45 C11.273,37.219 11.273,38.685 11.879,39.849 C12.279,39.716 12.612,39.583 12.879,39.45 L13.079,39.45 C13.546,39.183 13.913,39.283 14.179,39.75 C14.646,41.017 15.379,42.1 16.379,43 C16.846,43.533 16.879,43.967 16.48,44.3 C15.146,45.3 13.212,45.901 10.679,46.1 L10.379,46 L10.179,45.9 C9.579,45.299 9.079,44.7 8.679,44.099 C7.052,44.037 5.736,44.47 4.73,45.4 C5.33,46.466 6.129,47.566 7.129,48.7 C7.362,48.9 7.48,49.133 7.48,49.4 L7.48,49.5 C7.48,49.633 7.33,49.8 7.03,50 L5.53,49.5 C3.664,49.233 2.197,49.666 1.13,50.8 C0.797,51.401 0.63,52.033 0.63,52.7 L0.63,53 L10.481,53 C10.415,52.867 10.415,52.7 10.481,52.5 C10.747,52.233 11.047,51.733 11.38,51 C11.514,50.533 11.88,50.233 12.481,50.1 C15.014,49.633 17.047,48.868 18.581,47.8 C19.048,47.401 20.431,47.067 22.731,46.8 C23.059,44.853 23.059,43.103 22.731,41.55 C22.064,41.55 21.38,41.383 20.68,41.05 C19.481,40.651 18.58,39.75 17.981,38.35 C17.514,37.084 17.481,35.784 17.88,34.451 L17.981,33.851 C18.114,33.584 18.314,33.518 18.581,33.651 C18.915,33.984 19.181,34.351 19.381,34.751 C19.581,35.284 19.815,35.651 20.081,35.851 C21.181,37.119 22.698,37.417 24.631,36.751 C25.698,36.417 26.331,35.984 26.531,35.451 L26.531,34.251 L25.631,33.551 L25.031,33.251 C24.298,32.651 23.93,31.551 23.93,29.951 L23.93,29.151 C23.93,28.751 24.097,28.451 24.43,28.251 L24.731,28.101 C25.198,27.768 25.698,27.851 26.231,28.351 C26.764,28.884 27.364,29.218 28.031,29.351 C29.031,29.484 29.831,29.251 30.43,28.651 C30.897,28.284 31.397,28.184 31.93,28.351 C32.463,28.618 33.13,28.751 33.93,28.751 C35.164,28.618 36.047,27.934 36.58,26.701 L36.98,25.001 C36.98,24.534 36.846,24.068 36.58,23.601 C36.38,23.068 36.08,22.601 35.68,22.201 C35.213,21.934 35.047,21.468 35.18,20.801 L35.281,20.301 L35.281,19.5" id="Shape"></path>
                        </g>
                        <g id="Scene_1_x5F_0.0" transform="translate(141.000000, 63.000000)" fill="#3BC5F7">
                            <path d="M16.179,8.05 L16.079,7.25 C15.946,6.85 15.979,6.25 16.179,5.45 L16.179,4.95 C16.179,4.283 16.013,3.65 15.679,3.05 C14.679,1.184 13.129,0.383 11.03,0.65 L9.33,1.25 L9.23,1.25 C8.629,1.383 7.962,1.783 7.23,2.45 L5.53,5.05 L5.429,5.25 C4.829,6.584 3.929,7.517 2.73,8.05 C2.063,8.317 1.396,8.484 0.73,8.55 C-0.084,10.3 -0.084,12.05 0.73,13.8 L0.83,13.8 C3.097,13.533 4.63,13.434 5.43,13.5 C7.698,13.767 8.963,14.8 9.231,16.6 C9.564,18.934 10.847,20.034 13.081,19.901 C15.281,19.767 16.214,18.434 15.881,15.901 C15.614,13.967 14.364,12.368 12.131,11.1 L9.631,10 L8.232,9.6 C7.832,9.401 7.765,9.166 8.032,8.901 L8.832,7.751 C9.166,7.151 9.632,6.851 10.232,6.851 C12.464,7.119 13.681,7.835 13.881,9.001 C14.148,9.868 14.548,10.201 15.081,10.001 C15.814,9.868 16.181,9.251 16.181,8.151 L16.181,8.05" id="Shape"></path>
                        </g>
                    </g>
                    <g id="Group" transform="translate(40.000000, 119.000000)" fill="#322D2B">
                        <g transform="translate(6.000000, 0.000000)">
                            <g id="Scene_1_x5F_3.0_1_" transform="translate(0.000000, 8.000000)">
                                <path d="M9.916,1.066 L9.916,1.417 C9.883,1.584 9.85,1.7 9.816,1.767 C9.816,1.801 9.749,1.85 9.616,1.917 L8.966,2.066 L8.916,2.066 C8.85,2.132 8.816,2.216 8.816,2.316 C8.849,2.45 8.899,2.533 8.965,2.566 L11.715,2.566 L12.566,2.566 C12.699,2.566 12.766,2.483 12.766,2.316 C12.799,2.183 12.748,2.099 12.616,2.066 L12.166,2.016 C12.033,1.95 11.949,1.916 11.916,1.916 C11.85,1.882 11.816,1.849 11.816,1.815 C11.749,1.715 11.682,1.616 11.616,1.515 L11.616,1.065 C11.083,0.533 10.517,0.533 9.916,1.066" id="Shape"></path>
                                <path d="M6.017,2.617 L6.267,2.667 L6.466,2.617 L7.267,1.066 C6.633,0.599 6.017,0.599 5.416,1.066 L5.816,1.917 C5.883,2.117 5.949,2.35 6.017,2.617" id="Shape"></path>
                                <path d="M21.767,1.917 C22.3,2.517 22.966,2.816 23.767,2.816 C24.3,2.816 24.833,2.599 25.367,2.167 L25.417,2.316 L25.367,2.716 C25.467,2.849 25.551,2.916 25.617,2.916 C26.284,2.683 27.017,2.516 27.817,2.416 C27.917,2.349 27.966,2.266 27.966,2.166 C27.966,1.966 27.933,1.849 27.866,1.815 C27.866,1.782 27.849,1.782 27.816,1.815 L27.266,1.916 C27.132,1.916 27.066,1.632 27.066,1.065 C26.432,0.732 25.866,0.732 25.366,1.065 L25.366,1.215 C25.366,1.415 25.333,1.531 25.266,1.565 C25.232,1.631 25.149,1.682 25.016,1.715 C24.849,1.781 24.682,1.815 24.516,1.815 C24.016,1.815 23.599,1.598 23.266,1.166 C23.232,1.132 23.215,1.099 23.215,1.065 C22.549,0.532 21.899,0.532 21.266,1.065 C21.399,1.4 21.566,1.684 21.767,1.917" id="Shape"></path>
                                <path d="M17.716,1.417 L17.716,1.066 C17.216,0.599 16.699,0.599 16.166,1.066 L16.166,1.417 L16.116,1.767 C16.083,1.834 16.033,1.883 15.966,1.917 C15.8,2.017 15.699,2.066 15.666,2.066 L15.416,2.066 L15.416,2.117 C15.383,2.15 15.366,2.217 15.366,2.316 C15.366,2.45 15.399,2.533 15.466,2.566 L18.466,2.566 C18.533,2.533 18.567,2.45 18.567,2.316 C18.567,2.216 18.55,2.15 18.517,2.117 L18.466,2.066 L18.216,2.066 C18.15,2.066 18.067,2.016 17.966,1.917 C17.9,1.883 17.833,1.834 17.767,1.767 L17.716,1.417" id="Shape"></path>
                                <path d="M2.816,1.667 C2.783,1.6 2.766,1.483 2.766,1.316 L2.766,1.066 C2.432,0.766 2.099,0.766 1.766,1.066 C1.766,1.132 1.748,1.25 1.715,1.417 C1.682,1.584 1.632,1.7 1.566,1.767 C1.566,1.834 1.482,1.883 1.316,1.917 C1.283,1.983 1.149,2.033 0.916,2.066 L0.666,2.066 C0.633,2.132 0.616,2.216 0.616,2.316 C0.616,2.45 0.649,2.533 0.716,2.566 L2.966,2.566 L3.767,2.566 C3.833,2.533 3.867,2.45 3.867,2.316 C3.867,2.216 3.85,2.132 3.817,2.066 L3.767,2.066 L3.317,1.917 C3.25,1.917 3.133,1.9 2.966,1.867 C2.866,1.801 2.816,1.733 2.816,1.667" id="Shape"></path>
                                <path d="M54.416,1.367 L54.666,1.066 C54.434,0.533 53.85,0.533 52.916,1.066 L52.115,2.316 C52.082,2.45 52.115,2.533 52.217,2.566 L56.817,2.566 L57.317,1.266 L57.366,1.066 C57.233,0.9 57.034,0.9 56.766,1.066 L56.717,1.167 C56.582,1.334 56.467,1.467 56.365,1.566 C56.232,1.7 56.066,1.783 55.865,1.816 C55.666,1.849 55.449,1.867 55.217,1.867 L54.317,1.867 L54.217,1.816 C54.217,1.75 54.283,1.6 54.416,1.367" id="Shape"></path>
                                <path d="M49.816,1.767 L49.765,1.817 C49.632,1.883 49.499,1.918 49.365,1.918 C49.199,1.918 49.082,1.868 49.015,1.768 C48.849,1.668 48.765,1.435 48.765,1.068 C48.331,0.435 47.831,0.435 47.265,1.068 L47.216,1.318 C47.216,1.718 47.015,1.919 46.614,1.919 C46.382,1.919 46.198,1.836 46.065,1.669 C45.965,1.502 45.915,1.336 45.915,1.169 L45.915,1.068 C45.448,0.535 44.933,0.535 44.364,1.068 C44.298,1.169 44.264,1.268 44.264,1.369 C44.264,1.735 44.381,2.053 44.614,2.318 C44.915,2.652 45.298,2.818 45.764,2.818 C46.198,2.818 46.614,2.685 47.014,2.419 L47.114,2.369 C47.216,2.268 47.282,2.219 47.315,2.219 C47.381,2.219 47.432,2.252 47.465,2.319 L47.514,2.37 C47.782,2.67 48.131,2.819 48.565,2.819 C48.831,2.819 49.098,2.753 49.364,2.62 C49.665,2.486 49.899,2.337 50.065,2.17 C50.065,2.069 50.047,1.97 50.014,1.87 C49.982,1.801 49.916,1.767 49.816,1.767" id="Shape"></path>
                                <path d="M64.066,1.066 C63.765,0.599 63.265,0.599 62.566,1.066 L62.515,1.316 C62.515,1.716 62.316,1.917 61.915,1.917 C61.683,1.917 61.515,1.834 61.415,1.667 C61.282,1.5 61.216,1.334 61.216,1.167 L61.216,1.066 C60.683,0.766 60.165,0.766 59.665,1.066 C59.599,1.167 59.565,1.266 59.565,1.367 C59.565,1.733 59.682,2.051 59.915,2.316 C60.216,2.65 60.599,2.816 61.065,2.816 C61.531,2.816 61.948,2.683 62.315,2.417 L62.415,2.367 C62.548,2.266 62.649,2.217 62.716,2.217 L62.864,2.367 C63.098,2.667 63.448,2.816 63.915,2.816 C64.183,2.816 64.433,2.75 64.665,2.617 C64.999,2.483 65.231,2.334 65.364,2.167 C65.399,2.066 65.382,1.967 65.315,1.867 C65.282,1.801 65.231,1.766 65.165,1.766 L65.065,1.816 C64.932,1.882 64.797,1.917 64.665,1.917 C64.499,1.917 64.382,1.867 64.315,1.767 C64.184,1.633 64.1,1.4 64.066,1.066" id="Shape"></path>
                                <path d="M32.466,1.417 C32.4,1.35 32.366,1.233 32.366,1.066 C31.899,0.533 31.399,0.533 30.866,1.066 L30.866,4.966 C30.866,5.132 30.833,5.266 30.766,5.366 C30.766,5.432 30.715,5.499 30.616,5.565 L29.966,5.666 C29.9,5.732 29.866,5.815 29.866,5.916 C29.866,5.982 29.899,6.05 29.966,6.116 L33.366,6.116 C33.432,6.05 33.466,5.982 33.466,5.916 C33.466,5.815 33.449,5.732 33.416,5.666 L32.616,5.565 C32.55,5.499 32.499,5.432 32.466,5.366 L32.366,4.966 L32.366,3.016 C32.366,2.882 32.383,2.783 32.416,2.716 L32.616,2.666 L33.216,2.666 C33.749,2.666 34.199,2.583 34.567,2.416 C35.034,2.282 35.417,2.065 35.717,1.766 C35.916,1.533 36.1,1.3 36.266,1.066 C35.934,0.733 35.467,0.733 34.867,1.066 C34.801,1.2 34.733,1.316 34.667,1.417 C34.5,1.65 34.351,1.816 34.217,1.917 C34.018,2.017 33.784,2.066 33.518,2.066 L33.217,2.016 L32.818,1.816 C32.683,1.65 32.566,1.517 32.466,1.417" id="Shape"></path>
                                <path d="M41.115,1.417 L41.115,1.066 C40.615,0.599 40.099,0.599 39.566,1.066 L39.566,1.417 L39.515,1.767 C39.482,1.834 39.433,1.883 39.365,1.917 C39.199,2.017 39.099,2.066 39.066,2.066 L38.816,2.066 L38.765,2.117 C38.699,2.15 38.665,2.217 38.665,2.316 C38.665,2.45 38.716,2.533 38.815,2.566 L41.915,2.566 C41.948,2.533 41.981,2.45 42.015,2.316 C42.015,2.216 41.999,2.15 41.966,2.117 L41.966,2.066 L41.614,2.066 C41.581,2.066 41.499,2.016 41.364,1.917 C41.264,1.883 41.198,1.834 41.165,1.767 L41.115,1.417" id="Shape"></path>
                            </g>
                            <g id="Scene_1_x5F_2.0_1_">
                                <path d="M17.566,2.617 C17.766,2.483 17.866,2.283 17.866,2.016 C17.866,1.749 17.766,1.533 17.566,1.367 C17.432,1.2 17.232,1.117 16.965,1.117 C16.665,1.117 16.448,1.2 16.316,1.367 C16.116,1.566 16.016,1.783 16.016,2.016 C16.016,2.283 16.116,2.483 16.316,2.617 C16.449,2.816 16.666,2.917 16.965,2.917 C17.232,2.917 17.433,2.816 17.566,2.617" id="Shape"></path>
                                <path d="M15.616,5.467 C15.616,5.533 15.633,5.6 15.666,5.667 L15.866,5.717 L16.016,5.917 C16.082,5.983 16.116,6.033 16.116,6.066 L16.166,6.316 L16.166,9.066 C16.699,9.433 17.216,9.433 17.716,9.066 L17.716,4.667 C17.683,4.6 17.616,4.551 17.517,4.517 C17.45,4.584 17.183,4.734 16.716,4.967 L15.666,5.267 C15.633,5.367 15.616,5.434 15.616,5.467" id="Shape"></path>
                                <path d="M12.616,1.117 L9.916,1.117 C9.816,1.617 9.649,2.066 9.416,2.467 L6.816,7.867 L6.666,7.667 L4.166,2.367 C3.999,1.933 3.899,1.533 3.866,1.167 L3.866,1.117 L1.016,1.117 C0.882,1.15 0.816,1.233 0.816,1.367 C0.816,1.467 0.849,1.551 0.916,1.617 L1.416,1.667 C1.683,1.733 1.866,1.85 1.966,2.017 C2.1,2.151 2.166,2.368 2.166,2.667 L1.916,7.517 C1.883,8.017 1.833,8.484 1.767,8.917 L1.767,9.066 C2.1,9.4 2.433,9.4 2.767,9.066 L2.867,3.367 L5.417,9.066 C5.784,9.5 6.4,9.5 7.268,9.066 L9.917,3.367 L9.917,9.066 C10.45,9.4 11.018,9.4 11.617,9.066 L11.467,2.667 C11.467,2.334 11.518,2.1 11.617,1.967 C11.717,1.801 11.9,1.7 12.167,1.667 L12.617,1.617 L12.667,1.617 C12.768,1.551 12.817,1.467 12.817,1.367 C12.783,1.2 12.716,1.117 12.616,1.117" id="Shape"></path>
                                <path d="M23.216,9.066 C22.949,8.667 22.817,8.15 22.817,7.516 C22.817,6.882 22.95,6.382 23.216,6.016 C23.517,5.65 23.883,5.466 24.317,5.466 C24.683,5.466 24.983,5.616 25.216,5.916 C25.317,6.05 25.366,6.266 25.366,6.565 L25.366,9.065 C25.8,9.565 26.366,9.565 27.066,9.065 C27.033,8.833 27.016,8.565 27.016,8.265 L27.066,0.565 C26.965,0.465 26.866,0.432 26.766,0.465 L26.566,0.515 C25.766,0.815 25.199,0.998 24.866,1.065 C24.8,1.131 24.766,1.199 24.766,1.265 C24.766,1.399 24.799,1.498 24.866,1.565 L25.116,1.666 C25.216,1.732 25.283,1.833 25.316,1.966 C25.349,2.066 25.366,2.366 25.366,2.866 L25.366,4.666 C25.366,4.766 25.349,4.815 25.316,4.815 C25.116,4.749 24.866,4.715 24.566,4.715 C23.632,4.715 22.833,4.998 22.166,5.565 C21.466,6.232 21.116,7.065 21.116,8.065 C21.116,8.432 21.166,8.765 21.266,9.065 C21.899,9.533 22.55,9.533 23.216,9.066" id="Shape"></path>
                                <path d="M56.967,5.066 C56.967,5 56.934,4.95 56.865,4.917 L53.015,4.917 L52.816,4.816 L52.765,4.667 L52.665,4.617 L52.515,4.667 L52.066,6.467 C52.099,6.533 52.15,6.567 52.216,6.567 C52.282,6.6 52.349,6.6 52.415,6.567 L52.716,6.118 C52.816,5.918 52.915,5.784 53.015,5.718 C53.081,5.652 53.199,5.601 53.365,5.568 L54.615,5.518 C54.783,5.518 54.883,5.535 54.916,5.568 L52.916,9.068 C53.316,9.535 53.9,9.535 54.666,9.068 L56.967,5.066" id="Shape"></path>
                                <path d="M63.816,5.217 C63.515,4.883 63.033,4.717 62.365,4.717 C62.033,4.717 61.65,4.834 61.217,5.067 C60.75,5.234 60.416,5.434 60.217,5.668 C59.783,6.001 59.567,6.302 59.567,6.567 C59.567,6.767 59.684,6.868 59.917,6.868 C60.251,6.868 60.567,6.784 60.866,6.618 C61.067,6.517 61.167,6.335 61.167,6.067 C61.233,5.701 61.468,5.517 61.866,5.517 C62.1,5.517 62.266,5.567 62.366,5.667 C62.6,5.9 62.684,6.267 62.616,6.767 L62.616,7.167 C62.616,7.267 62.534,7.367 62.366,7.467 L60.817,8.017 C60.151,8.25 59.766,8.6 59.667,9.067 C60.167,9.434 60.685,9.434 61.218,9.067 C61.251,8.734 61.484,8.467 61.917,8.267 C62.218,8.167 62.417,8.118 62.517,8.118 L62.568,8.267 L62.568,9.067 C63.002,9.434 63.502,9.434 64.068,9.067 L64.068,8.767 L64.168,6.567 C64.232,5.967 64.115,5.517 63.816,5.217" id="Shape"></path>
                                <path d="M45.816,5.066 C45.416,5.233 45.099,5.433 44.865,5.667 C44.467,6 44.265,6.301 44.265,6.566 C44.265,6.766 44.382,6.867 44.615,6.867 C44.916,6.867 45.232,6.783 45.566,6.617 C45.732,6.516 45.816,6.334 45.816,6.066 C45.882,5.7 46.115,5.516 46.515,5.516 C46.716,5.516 46.9,5.566 47.066,5.666 C47.232,5.899 47.316,6.266 47.316,6.766 L47.316,7.166 C47.316,7.266 47.216,7.366 47.015,7.466 L45.466,8.016 C44.831,8.249 44.466,8.599 44.364,9.066 C44.798,9.5 45.315,9.5 45.915,9.066 C45.948,8.733 46.183,8.466 46.614,8.266 C46.915,8.166 47.114,8.117 47.216,8.117 L47.265,8.266 L47.265,9.066 C47.765,9.533 48.265,9.533 48.765,9.066 L48.765,8.766 L48.816,6.566 C48.916,6 48.798,5.55 48.466,5.216 C48.165,4.882 47.698,4.716 47.066,4.716 C46.732,4.717 46.316,4.834 45.816,5.066" id="Shape"></path>
                                <path d="M57.365,8.767 C57.332,8.734 57.283,8.701 57.217,8.667 C57.082,8.667 56.983,8.684 56.916,8.717 L56.766,9.067 C56.934,9.301 57.133,9.301 57.366,9.067 L57.366,8.767" id="Shape"></path>
                                <path d="M39.066,1.066 C39,1.132 38.966,1.183 38.966,1.216 C38.966,1.316 38.999,1.4 39.066,1.466 L39.466,1.666 L39.566,2.166 L39.566,9.065 C40.099,9.399 40.615,9.399 41.115,9.065 L41.166,0.565 L41.115,0.515 C41.082,0.415 41.015,0.381 40.916,0.415 L39.967,0.814 C39.699,0.917 39.4,1 39.066,1.066" id="Shape"></path>
                                <path d="M36.467,6.316 C36.401,5.983 36.25,5.716 36.016,5.516 C35.85,5.283 35.6,5.099 35.267,4.966 C34.967,4.8 34.617,4.716 34.216,4.716 C34.017,4.716 33.833,4.749 33.666,4.816 C33.533,4.816 33.366,4.882 33.166,5.016 L32.466,5.316 C32.4,5.316 32.366,5.266 32.366,5.167 L32.466,4.617 C32.433,4.516 32.35,4.467 32.216,4.467 L31.366,4.967 L30.366,5.267 C30.333,5.301 30.316,5.368 30.316,5.467 C30.316,5.533 30.333,5.584 30.366,5.617 L30.366,5.667 L30.516,5.767 L30.715,5.967 C30.748,5.967 30.782,6.017 30.816,6.117 L30.866,6.717 L30.866,9.067 C31.3,9.434 31.8,9.434 32.366,9.067 L32.366,8.918 L32.416,6.168 C32.416,6.067 32.449,5.951 32.517,5.817 C32.716,5.651 32.966,5.567 33.267,5.567 C33.8,5.567 34.233,5.767 34.567,6.168 C34.867,6.601 35.017,7.151 35.017,7.817 C35.017,8.085 34.983,8.368 34.916,8.668 C34.916,8.802 34.9,8.935 34.866,9.067 C35.199,9.467 35.666,9.467 36.265,9.067 C36.331,8.934 36.382,8.801 36.415,8.668 C36.548,8.268 36.614,7.817 36.614,7.317 C36.615,6.95 36.566,6.617 36.467,6.316" id="Shape"></path>
                            </g>
                        </g>
                        <g transform="translate(0.000000, 17.000000)" id="Shape">
                            <path d="M0.706,12.125 C0.749,12.082 0.978,11.937 1.051,11.937 C1.109,11.937 1.396,12.038 1.496,12.11 C1.769,12.283 2.043,12.412 2.244,12.412 C2.489,12.412 2.618,12.369 2.819,12.139 C3.049,11.895 3.178,11.55 3.222,10.946 C3.279,10.055 3.308,8.502 3.308,6.46 C3.308,4.389 3.279,2.923 3.222,2.232 C3.193,1.944 3.107,1.585 2.373,1.455 C2.042,1.397 1.927,1.297 1.927,1.183 C1.927,1.068 2.042,1.01 2.316,1.01 C2.761,1.01 3.279,1.053 3.912,1.053 C4.416,1.053 4.976,1.01 5.423,1.01 C5.595,1.01 5.811,1.038 5.811,1.154 C5.811,1.298 5.682,1.384 5.379,1.442 C4.804,1.556 4.56,1.758 4.56,2.491 C4.56,3.671 4.502,7.769 4.502,9.006 C4.487,10.746 3.683,12.012 2.949,12.572 C2.287,13.075 1.683,13.262 1.309,13.262 C0.834,13.262 0.374,12.975 0.374,12.701 C0.375,12.57 0.562,12.269 0.706,12.125 Z"></path>
                            <path d="M13.778,1.167 C13.893,1.555 14.137,2.202 14.411,2.95 C15.159,5.05 16.237,7.896 16.482,8.486 C16.957,9.666 17.186,9.781 17.834,9.939 C18.063,10.01 18.179,10.082 18.179,10.183 C18.179,10.284 18.078,10.37 17.719,10.37 C17.244,10.37 16.54,10.299 15.907,10.299 C15.446,10.299 15.245,10.327 14.886,10.327 C14.527,10.327 14.441,10.226 14.441,10.154 C14.441,10.082 14.527,9.967 14.786,9.925 C15.476,9.781 15.419,9.493 15.361,9.192 C15.246,8.602 14.886,7.653 14.555,6.733 C14.541,6.675 14.484,6.588 14.067,6.588 C13.276,6.588 12.01,6.603 11.709,6.646 C11.651,6.646 11.579,6.718 11.551,6.761 C11.177,7.696 10.803,8.918 10.803,9.278 C10.803,9.451 10.861,9.695 11.508,9.896 C11.752,9.968 11.896,10.055 11.896,10.155 C11.896,10.3 11.68,10.343 11.494,10.343 C11.25,10.343 10.89,10.3 10.358,10.3 C9.826,10.3 9.078,10.371 8.862,10.371 C8.603,10.371 8.531,10.313 8.531,10.227 C8.531,10.14 8.633,10.011 8.847,9.94 C9.567,9.695 9.753,9.652 10.17,8.717 C10.501,7.984 12.141,3.64 12.773,2.087 C12.831,1.972 12.86,1.858 12.86,1.785 C12.86,1.742 12.86,1.714 12.888,1.67 C13.018,1.498 13.219,1.124 13.32,0.966 C13.421,0.851 13.478,0.793 13.55,0.793 C13.606,0.793 13.663,0.851 13.778,1.167 Z M14.238,5.826 C13.994,5.093 13.246,2.935 13.117,2.734 C13.074,2.648 13.045,2.633 13.002,2.734 C12.743,3.424 11.995,5.437 11.88,5.883 C11.866,5.941 11.895,5.984 11.952,5.984 C12.527,5.969 13.721,5.984 14.195,5.941 C14.21,5.941 14.253,5.869 14.238,5.826 Z"></path>
                            <path d="M21.503,1.009 C21.849,1.009 22.452,1.052 22.912,1.052 C23.344,1.052 23.904,1.024 24.25,1.024 C24.494,1.024 24.638,1.067 24.638,1.197 C24.638,1.311 24.451,1.384 24.221,1.441 C23.733,1.542 23.56,1.67 23.531,2.232 C23.488,2.778 23.488,5.122 23.517,5.324 C23.531,5.382 23.56,5.424 23.618,5.424 C23.676,5.424 23.819,5.324 23.834,5.324 C24.294,4.978 26.595,2.735 27.04,2.232 C27.415,1.815 27.357,1.585 26.882,1.455 C26.71,1.397 26.552,1.354 26.552,1.24 C26.552,1.11 26.71,1.052 26.925,1.052 C27.198,1.052 27.213,1.067 27.472,1.067 C27.818,1.067 29.199,0.995 29.601,0.995 C29.859,0.995 29.974,1.053 29.974,1.168 C29.974,1.255 29.802,1.369 29.586,1.427 C28.766,1.6 28.421,1.829 27.5,2.534 C26.825,3.065 24.955,4.777 24.783,5.051 C24.754,5.137 24.739,5.152 24.783,5.195 C25.098,5.597 27.544,8.086 28.622,9.193 C29.283,9.854 29.614,9.883 30.132,9.969 C30.291,10.012 30.42,10.113 30.42,10.17 C30.42,10.314 30.219,10.386 30.061,10.386 C29.672,10.386 28.349,10.271 27.961,10.271 C27.443,10.271 27.285,10.286 26.954,10.286 C26.753,10.286 26.652,10.128 26.652,10.027 C26.652,9.955 26.71,9.897 27.27,9.783 C27.328,9.768 27.371,9.681 27.342,9.638 C26.91,9.092 24.984,7.065 24.236,6.302 C23.848,5.885 23.704,5.698 23.589,5.698 C23.518,5.698 23.531,5.886 23.518,6 C23.489,6.273 23.532,8.604 23.546,9.136 C23.561,9.51 23.762,9.726 24.409,9.898 C24.668,9.956 24.739,10.057 24.739,10.157 C24.739,10.272 24.595,10.345 24.366,10.345 C24.049,10.345 23.043,10.302 22.596,10.302 C22.136,10.302 21.661,10.345 21.201,10.345 C21.043,10.345 20.855,10.258 20.855,10.157 C20.855,10.028 20.97,9.985 21.273,9.913 C21.977,9.769 22.251,9.567 22.294,8.72 C22.309,8.231 22.337,6.879 22.337,5.326 C22.337,3.024 22.309,2.765 22.279,2.248 C22.251,1.745 22.064,1.587 21.489,1.443 C21.158,1.356 21.115,1.27 21.115,1.199 C21.115,1.066 21.287,1.009 21.503,1.009 Z"></path>
                            <path d="M37.928,1.167 C38.043,1.555 38.287,2.202 38.561,2.95 C39.309,5.05 40.387,7.896 40.631,8.486 C41.106,9.666 41.336,9.781 41.983,9.939 C42.213,10.01 42.329,10.082 42.329,10.183 C42.329,10.284 42.227,10.37 41.868,10.37 C41.393,10.37 40.689,10.299 40.056,10.299 C39.596,10.299 39.395,10.327 39.035,10.327 C38.675,10.327 38.59,10.226 38.59,10.154 C38.59,10.082 38.676,9.967 38.935,9.925 C39.625,9.781 39.568,9.493 39.51,9.192 C39.395,8.602 39.035,7.653 38.705,6.733 C38.69,6.675 38.633,6.588 38.215,6.588 C37.425,6.588 36.159,6.603 35.857,6.646 C35.8,6.646 35.728,6.718 35.7,6.761 C35.326,7.696 34.952,8.918 34.952,9.278 C34.952,9.451 35.01,9.695 35.657,9.896 C35.901,9.968 36.045,10.055 36.045,10.155 C36.045,10.3 35.829,10.343 35.643,10.343 C35.398,10.343 35.039,10.3 34.507,10.3 C33.975,10.3 33.227,10.371 33.011,10.371 C32.752,10.371 32.68,10.313 32.68,10.227 C32.68,10.14 32.782,10.011 32.996,9.94 C33.716,9.695 33.902,9.652 34.319,8.717 C34.65,7.984 36.29,3.64 36.923,2.087 C36.98,1.972 37.009,1.858 37.009,1.785 C37.009,1.742 37.009,1.714 37.037,1.67 C37.167,1.498 37.368,1.124 37.469,0.966 C37.57,0.851 37.627,0.793 37.698,0.793 C37.755,0.793 37.812,0.851 37.928,1.167 Z M38.388,5.826 C38.144,5.093 37.396,2.935 37.267,2.734 C37.224,2.648 37.195,2.633 37.152,2.734 C36.893,3.424 36.145,5.437 36.03,5.883 C36.016,5.941 36.045,5.984 36.102,5.984 C36.677,5.969 37.871,5.984 38.345,5.941 C38.359,5.941 38.402,5.869 38.388,5.826 Z"></path>
                            <path d="M50.758,5.395 C50.686,5.438 50.412,5.568 50.311,5.64 C50.268,5.668 50.225,5.798 50.254,5.856 C50.397,6.201 51.606,8.142 52.483,9.12 C52.872,9.58 53.26,9.839 53.893,9.969 C54.006,9.998 54.122,10.113 54.122,10.17 C54.122,10.256 54.007,10.314 53.921,10.357 C53.749,10.429 53.433,10.459 53.13,10.459 C52.454,10.459 51.636,10.057 51.218,9.523 C50.714,8.834 49.982,7.726 49.406,6.82 C49.205,6.518 48.918,6.159 48.832,6.101 C48.773,6.043 48.242,5.914 47.811,5.914 C47.711,5.914 47.639,6.043 47.639,6.086 C47.623,6.33 47.653,8.157 47.696,8.99 C47.725,9.594 47.884,9.796 48.559,9.954 C48.803,10.026 48.905,10.127 48.905,10.198 C48.905,10.343 48.632,10.386 48.559,10.386 C47.955,10.386 47.682,10.3 46.704,10.3 C46.446,10.3 45.698,10.357 45.54,10.357 C45.352,10.357 45.165,10.3 45.165,10.156 C45.165,10.042 45.296,10.012 45.481,9.941 C46.114,9.739 46.374,9.653 46.417,9.106 C46.446,8.661 46.503,7.136 46.503,6.273 C46.503,4.059 46.474,2.751 46.417,2.189 C46.358,1.658 46.229,1.628 45.583,1.47 C45.368,1.412 45.237,1.34 45.237,1.226 C45.237,1.125 45.309,1.053 45.626,1.053 L46.431,1.053 C46.964,1.053 47.986,0.981 48.761,0.981 C49.753,0.981 50.531,1.111 51.105,1.585 C51.58,1.973 51.925,2.692 51.925,3.383 C51.922,4.158 51.461,4.963 50.758,5.395 Z M49.994,1.972 C49.65,1.642 49.031,1.426 48.572,1.426 C48.5,1.426 48.039,1.454 47.881,1.527 C47.809,1.555 47.709,1.772 47.709,1.829 C47.666,2.333 47.621,5.108 47.666,5.352 C47.693,5.467 47.809,5.568 47.895,5.568 C48.729,5.568 49.493,5.324 49.694,5.194 C50.083,4.95 50.643,4.317 50.643,3.411 C50.643,3.064 50.412,2.39 49.994,1.972 Z"></path>
                            <path d="M64.219,1.037 C64.737,1.009 64.996,0.923 65.198,0.778 C65.298,0.72 65.343,0.692 65.399,0.692 C65.471,0.692 65.528,0.821 65.458,1.023 C65.313,1.468 65.228,1.914 65.14,2.662 C65.126,2.792 65.011,2.935 64.896,2.935 C64.796,2.935 64.738,2.834 64.695,2.475 C64.609,1.727 64.422,1.656 63.531,1.612 C63.287,1.598 61.689,1.598 61.517,1.641 C61.445,1.656 61.388,1.799 61.388,1.828 L61.388,5.351 C61.388,7.019 61.388,8.385 61.445,8.917 C61.517,9.563 61.59,9.736 62.48,9.938 C62.668,9.981 62.869,10.095 62.869,10.196 C62.869,10.354 62.609,10.369 62.467,10.369 C62.352,10.369 61.459,10.298 60.828,10.298 C60.109,10.298 59.375,10.399 59.187,10.399 C58.9,10.399 58.755,10.312 58.755,10.226 C58.755,10.125 58.9,10.01 59.028,9.982 C60.036,9.752 60.063,9.507 60.108,8.428 C60.135,7.58 60.208,4.647 60.208,3.539 L60.208,1.827 C60.208,1.713 60.136,1.64 60.093,1.64 C59.806,1.597 58.54,1.568 58.31,1.568 C57.763,1.568 57.462,1.655 57.246,1.899 C57.189,1.942 57.016,2.172 56.771,2.647 C56.642,2.949 56.556,2.934 56.498,2.934 C56.412,2.934 56.355,2.747 56.355,2.603 C56.355,2.331 56.628,1.553 56.628,0.705 C56.628,0.605 56.757,0.476 56.843,0.476 C56.915,0.476 56.915,0.577 57.073,0.705 C57.116,0.749 57.346,0.965 57.561,0.978 C57.936,1.022 59.086,1.065 60.926,1.065 C61.674,1.066 63.629,1.052 64.219,1.037 Z"></path>
                            <path d="M73.223,1.167 C73.338,1.555 73.584,2.202 73.856,2.95 C74.604,5.05 75.682,7.896 75.928,8.486 C76.403,9.666 76.631,9.781 77.28,9.939 C77.51,10.01 77.626,10.082 77.626,10.183 C77.626,10.284 77.524,10.37 77.165,10.37 C76.69,10.37 75.985,10.299 75.353,10.299 C74.892,10.299 74.693,10.327 74.332,10.327 C73.973,10.327 73.887,10.226 73.887,10.154 C73.887,10.082 73.973,9.967 74.233,9.925 C74.922,9.781 74.866,9.493 74.807,9.192 C74.694,8.602 74.332,7.653 74.002,6.733 C73.988,6.675 73.93,6.588 73.514,6.588 C72.723,6.588 71.457,6.603 71.155,6.646 C71.098,6.646 71.026,6.718 70.997,6.761 C70.624,7.696 70.249,8.918 70.249,9.278 C70.249,9.451 70.308,9.695 70.954,9.896 C71.198,9.968 71.343,10.055 71.343,10.155 C71.343,10.3 71.128,10.343 70.941,10.343 C70.695,10.343 70.337,10.3 69.804,10.3 C69.273,10.3 68.525,10.371 68.31,10.371 C68.05,10.371 67.978,10.313 67.978,10.227 C67.978,10.14 68.08,10.011 68.294,9.94 C69.013,9.695 69.2,9.652 69.616,8.717 C69.948,7.984 71.587,3.64 72.22,2.087 C72.279,1.972 72.306,1.858 72.306,1.785 C72.306,1.742 72.306,1.714 72.335,1.67 C72.464,1.498 72.665,1.124 72.767,0.966 C72.867,0.851 72.925,0.793 72.997,0.793 C73.051,0.793 73.107,0.851 73.223,1.167 Z M73.684,5.826 C73.44,5.093 72.692,2.935 72.563,2.734 C72.52,2.648 72.491,2.633 72.448,2.734 C72.188,3.424 71.44,5.437 71.325,5.883 C71.311,5.941 71.341,5.984 71.397,5.984 C71.973,5.969 73.167,5.984 73.641,5.941 C73.654,5.941 73.697,5.869 73.684,5.826 Z"></path>
                        </g>
                    </g>
                </g>
            </g>
        </g>
    </g>
</svg>